<svg width="78" height="78" viewBox="0 0 78 78" fill="none" xmlns="http://www.w3.org/2000/svg">
<mask id="mask0_67_37" style="mask-type:alpha" maskUnits="userSpaceOnUse" x="9" y="11" width="61" height="56">
<path fill-rule="evenodd" clip-rule="evenodd" d="M62.9124 17.3454C62.9528 17.3532 63.0113 17.353 63.0425 17.3448C63.0735 17.3366 63.0404 17.3304 62.969 17.3306C62.8974 17.331 62.8721 17.3376 62.9124 17.3454ZM64.0007 17.3774C64.0321 17.3856 64.0832 17.3856 64.1146 17.3774C64.1458 17.3692 64.1203 17.3626 64.0577 17.3626C63.9951 17.3626 63.9695 17.3692 64.0007 17.3774ZM64.5699 17.4105C64.6103 17.4181 64.6688 17.4179 64.7 17.4097C64.731 17.4016 64.6979 17.3953 64.6265 17.3957C64.5549 17.3961 64.5296 17.4027 64.5699 17.4105ZM12.1307 17.4423C12.1621 17.4505 12.2132 17.4505 12.2446 17.4423C12.2758 17.4341 12.2503 17.4275 12.1877 17.4275C12.1251 17.4275 12.0995 17.4341 12.1307 17.4423ZM65.675 17.4429C65.7154 17.4507 65.7739 17.4505 65.8049 17.4423C65.8361 17.4341 65.8029 17.4279 65.7314 17.4281C65.66 17.4285 65.6344 17.4351 65.675 17.4429ZM66.7633 17.4749C66.7945 17.4831 66.8458 17.4831 66.877 17.4749C66.9084 17.4667 66.8828 17.4601 66.8202 17.4601C66.7576 17.4601 66.7321 17.4667 66.7633 17.4749ZM67.3325 17.508C67.3729 17.5156 67.4314 17.5154 67.4624 17.5072C67.4936 17.4991 67.4604 17.4928 67.3889 17.4932C67.3175 17.4936 67.2919 17.5002 67.3325 17.508ZM15.4783 19.6524C15.5095 19.6604 15.5608 19.6604 15.592 19.6524C15.6234 19.6442 15.5976 19.6374 15.5352 19.6374C15.4726 19.6374 15.4471 19.6442 15.4783 19.6524ZM61.58 19.653C61.6204 19.6606 61.6789 19.6604 61.7099 19.6522C61.7411 19.6441 61.7079 19.6378 61.6364 19.6382C61.565 19.6386 61.5394 19.6452 61.58 19.653ZM62.1159 19.6848C62.1471 19.693 62.1983 19.693 62.2295 19.6848C62.2607 19.6766 62.2352 19.67 62.1726 19.67C62.11 19.67 62.0845 19.6766 62.1159 19.6848ZM63.2375 19.718C63.2779 19.7258 63.3364 19.7254 63.3674 19.7174C63.3986 19.7092 63.3654 19.7027 63.2939 19.7031C63.2225 19.7035 63.1969 19.7102 63.2375 19.718ZM64.3258 19.7499C64.357 19.7579 64.4083 19.7579 64.4395 19.7499C64.4709 19.7417 64.4451 19.7349 64.3827 19.7349C64.3201 19.7349 64.2946 19.7417 64.3258 19.7499Z" fill="#F4FC04"/>
<path fill-rule="evenodd" clip-rule="evenodd" d="M19.3213 11.3943C19.2567 11.4107 19.2343 11.4197 19.0096 11.5203C18.896 11.571 18.6226 11.8148 18.6226 11.8651C18.6226 11.8789 18.6037 11.9095 18.5806 11.9331C18.5319 11.9832 18.4617 12.1701 18.363 12.5125C18.3244 12.6464 18.2803 12.7927 18.2649 12.8373C18.2497 12.8822 18.2055 13.0357 18.1665 13.1786C18.1275 13.3217 18.0838 13.4752 18.069 13.5198C18.0543 13.5647 18.0111 13.7109 17.9726 13.8449C17.9342 13.9791 17.8903 14.1253 17.8753 14.17C17.8601 14.2146 17.8254 14.3316 17.7981 14.4299C17.6899 14.8189 17.609 15.0999 17.5826 15.1773C17.5674 15.2222 17.523 15.3684 17.4842 15.5024C17.4452 15.6366 17.3929 15.8088 17.3679 15.8854C17.343 15.962 17.3225 16.0509 17.3225 16.0831C17.3225 16.1153 17.3116 16.1525 17.2981 16.166C17.2849 16.1793 17.2568 16.2586 17.2361 16.3419C17.2153 16.4253 17.1751 16.5704 17.1466 16.6642C17.1183 16.7582 17.0739 16.9101 17.0479 17.0022C16.9822 17.236 17.0113 17.2264 16.2787 17.2596C15.1968 17.3087 13.4835 17.3834 12.2689 17.4347C10.3074 17.5173 10.2405 17.5296 9.91933 17.8637C9.55761 18.2402 9.48253 19.0557 9.78361 19.3375C9.79317 19.3463 9.83353 19.3958 9.87312 19.4475C9.9324 19.5249 10.4398 20.0717 10.8713 20.5237C10.9249 20.5798 11.1151 20.7848 11.2939 20.979C11.4725 21.1734 11.6626 21.378 11.7163 21.4339C11.8879 21.6125 12.5936 22.3705 12.7425 22.5361C12.8215 22.624 12.9522 22.7636 13.0325 22.8465C13.2638 23.0848 13.9572 23.8266 13.9751 23.8548C14.0003 23.895 14.7319 24.6719 15.1278 25.0789C15.5973 25.5617 15.9058 25.6995 16.3239 25.6134C17.3414 25.4033 17.6478 24.3207 16.9099 23.5421C16.8061 23.4327 16.6418 23.2572 16.5447 23.1521C15.9532 22.5129 15.6313 22.1677 15.5026 22.0349C15.422 21.952 15.2319 21.7473 15.08 21.58C14.9281 21.4129 14.7454 21.2151 14.6738 21.1408C14.511 20.9714 13.8182 20.2271 13.6013 19.9886C13.512 19.8901 13.4184 19.7934 13.3933 19.7735C13.3593 19.7466 13.5196 19.732 14.027 19.716C14.4006 19.7043 14.9696 19.6793 15.2914 19.6606C15.6131 19.6417 16.3955 19.6074 17.03 19.5842C18.246 19.5399 18.3804 19.5192 18.5487 19.3509C18.5732 19.3264 18.6193 19.2878 18.6512 19.2649C18.8143 19.1485 18.941 18.8991 19.0771 18.4274C19.1157 18.2934 19.1598 18.1472 19.1748 18.1023C19.19 18.0577 19.2269 17.9335 19.2567 17.8262C19.3647 17.4382 19.5287 16.8768 19.565 16.7699C19.5913 16.6925 19.6725 16.4115 19.7807 16.0225C19.808 15.924 19.8427 15.8072 19.8577 15.7623C19.8729 15.7177 19.9166 15.5714 19.955 15.4375C19.9934 15.3033 20.0373 15.1571 20.0525 15.1124C20.0677 15.0678 20.112 14.9244 20.1508 14.7942C20.2284 14.5335 20.2064 14.5393 20.4289 14.7216C20.484 14.7667 20.5921 14.8548 20.6689 14.9174C20.7459 14.98 20.8253 15.0457 20.8452 15.0637C20.8651 15.0816 20.9546 15.1543 21.0439 15.2255C21.1332 15.2967 21.2227 15.3698 21.2426 15.3879C21.2767 15.4193 21.3249 15.4589 21.6776 15.7464C21.758 15.8119 21.8531 15.8897 21.8888 15.9195C21.9245 15.9494 22.0265 16.0322 22.1154 16.1038C22.3722 16.3103 22.4329 16.3604 22.4881 16.4125C22.5167 16.4392 22.6421 16.5412 22.7669 16.6391C22.8917 16.737 23.0011 16.8251 23.0101 16.8347C23.0255 16.8512 23.0828 16.8986 23.3798 17.139C23.4492 17.1952 23.5301 17.2631 23.5598 17.29C23.5894 17.3167 23.7955 17.485 24.0176 17.6636C24.2397 17.8424 24.4451 18.0105 24.4739 18.0374C25.1057 18.6238 25.8272 18.522 26.4382 17.7599C26.5093 17.6712 26.5825 17.5829 26.6006 17.5634C26.6189 17.5441 26.6997 17.4501 26.78 17.3545C27.2324 16.8177 27.3438 16.687 27.3615 16.6724C27.3724 16.6634 27.4399 16.5833 27.5113 16.494C27.5828 16.4049 27.6632 16.3087 27.6901 16.2803C27.7168 16.2518 27.7741 16.1859 27.8172 16.1336C27.8603 16.0814 27.9406 15.9872 27.9958 15.9242C28.0512 15.8612 28.1548 15.7378 28.2263 15.65C28.2979 15.5621 28.3782 15.4673 28.4051 15.439C28.4319 15.411 28.5124 15.3156 28.5838 15.2271C28.6553 15.1387 28.7357 15.043 28.7626 15.0145C28.8191 14.9547 29.0716 14.6598 29.2062 14.4964C29.3737 14.2936 29.4755 14.1897 29.4915 14.2055C29.5003 14.2142 29.5611 14.2645 29.627 14.3174C29.6929 14.3704 29.7709 14.4356 29.8004 14.4625C29.8298 14.4892 29.9265 14.5691 30.0151 14.6401C30.1038 14.7109 30.1835 14.7772 30.1925 14.7872C30.2015 14.7971 30.3109 14.8852 30.4357 14.9831C30.5605 15.081 30.6859 15.183 30.7145 15.2099C30.7697 15.2618 30.8304 15.3119 31.0872 15.5186C31.1761 15.5902 31.2781 15.6728 31.3138 15.7027C31.3496 15.7325 31.4885 15.8472 31.6226 15.9573C31.7566 16.0677 31.8956 16.1824 31.9313 16.2122C31.967 16.2419 32.069 16.3247 32.1579 16.3963C32.4147 16.6028 32.4754 16.6529 32.5306 16.705C32.5592 16.7317 32.6846 16.8337 32.8094 16.9316C32.9342 17.0295 33.0436 17.1178 33.0526 17.1277C33.0615 17.1377 33.1413 17.2038 33.23 17.2748C33.3186 17.3457 33.4155 17.4255 33.4451 17.4524C33.4749 17.4793 33.5559 17.547 33.6253 17.603C34.0133 17.9161 34.1797 18.0546 34.2296 18.1055C34.3875 18.2665 34.7103 18.3773 35.0166 18.3755C35.547 18.3726 35.6486 18.3016 36.3832 17.4224C36.4192 17.3791 36.4707 17.3206 36.4976 17.2921C36.5244 17.2637 36.6049 17.1675 36.6763 17.0782C36.7478 16.9891 36.8221 16.9015 36.8414 16.8836C36.8607 16.8659 36.9923 16.7124 37.1339 16.5427C37.2755 16.3731 37.4059 16.2183 37.4239 16.1988C37.4416 16.1793 37.5222 16.0845 37.6025 15.9883C37.683 15.8922 37.794 15.7618 37.8492 15.6986C37.9044 15.6354 37.9849 15.541 38.028 15.4888C38.0711 15.4365 38.1282 15.37 38.1551 15.3411C38.1819 15.3121 38.2624 15.2162 38.3338 15.1276C38.4053 15.0393 38.4857 14.9437 38.5126 14.9153C38.5393 14.8868 38.5968 14.8209 38.6403 14.7686C38.7518 14.6345 39.0385 14.2975 39.1032 14.2244C39.1647 14.155 39.1684 14.1565 39.4256 14.37C39.5043 14.4354 39.6785 14.5793 39.8126 14.6897C39.9466 14.8002 40.0856 14.9149 40.1213 14.9447C40.157 14.9744 40.259 15.0572 40.3479 15.1288C40.6047 15.3353 40.6654 15.3854 40.7206 15.4375C40.7492 15.4642 40.8746 15.5662 40.9994 15.6641C41.1242 15.762 41.2336 15.8501 41.2426 15.8597C41.258 15.8762 41.3153 15.9236 41.6123 16.164C41.6817 16.2202 41.7626 16.2881 41.7923 16.315C41.8219 16.3417 42.028 16.51 42.2501 16.6886C42.4722 16.8674 42.6776 17.0355 42.7064 17.0624C42.7655 17.1172 42.8451 17.1827 43.0797 17.3701C43.1686 17.4409 43.2485 17.5072 43.2575 17.5172C43.2665 17.5271 43.3759 17.6152 43.5007 17.7131C43.6255 17.811 43.7505 17.913 43.7783 17.9399C44.5219 18.6524 45.2171 18.5637 45.9388 17.664C46.0103 17.5749 46.0907 17.4787 46.1176 17.4503C46.1443 17.4218 46.2018 17.3559 46.2453 17.3036C46.2888 17.2514 46.413 17.1055 46.5216 16.9797C46.63 16.8538 46.7847 16.672 46.865 16.5759C47.1922 16.1849 47.428 15.9078 47.4465 15.8924C47.4574 15.8834 47.5249 15.8033 47.5963 15.714C47.6678 15.6249 47.7482 15.5287 47.7751 15.5003C47.8018 15.4718 47.8591 15.4059 47.9022 15.3536C47.9453 15.3014 48.0256 15.2072 48.0808 15.1442C48.1362 15.0812 48.2398 14.9578 48.3113 14.87C48.3829 14.7821 48.4632 14.6869 48.4901 14.6586C48.5169 14.6302 48.5806 14.5561 48.6315 14.4941C49.0203 14.021 49.0077 14.029 49.1609 14.1624C49.3238 14.3041 49.5238 14.4701 49.8551 14.7386C50.3861 15.1692 50.4146 15.1926 50.47 15.2425C50.4996 15.2692 50.5965 15.3491 50.6851 15.4201C50.7738 15.4909 50.8535 15.5572 50.8625 15.5672C50.8715 15.5771 50.9809 15.6652 51.1057 15.7631C51.2305 15.861 51.3559 15.963 51.3845 15.9899C51.4397 16.0418 51.5003 16.0919 51.7572 16.2986C51.8461 16.3702 51.9481 16.453 51.9838 16.4827C52.0196 16.5125 52.1146 16.5905 52.1951 16.656C52.543 16.9394 52.5959 16.9829 52.6302 17.0137C52.6501 17.0316 52.7396 17.1043 52.8289 17.1755C52.9182 17.2467 53.0077 17.3198 53.0276 17.3379C53.0617 17.3693 53.1099 17.4089 53.4626 17.6964C53.543 17.7619 53.6381 17.8397 53.6738 17.8695C53.7095 17.8994 53.8119 17.9822 53.9014 18.0538C53.9907 18.1252 54.071 18.1909 54.08 18.1998C54.1401 18.2599 54.3341 18.3363 54.5314 18.3779C55.0252 18.4818 55.4161 18.2864 55.8972 17.695C55.9403 17.642 56.0206 17.547 56.0758 17.4838C56.1312 17.4206 56.2422 17.2902 56.3225 17.194C56.403 17.0979 56.4834 17.0031 56.5013 16.9836C56.5193 16.9641 56.6497 16.8093 56.7913 16.6397C56.9329 16.47 57.0645 16.3165 57.0838 16.2986C57.1031 16.2809 57.1774 16.1933 57.2488 16.104C57.3203 16.0149 57.4007 15.9187 57.4276 15.8903C57.4543 15.8618 57.5116 15.7959 57.5547 15.7436C57.5978 15.6914 57.6781 15.5972 57.7333 15.5342C57.7887 15.4712 57.8923 15.3478 57.9638 15.26C58.0354 15.1721 58.1157 15.0773 58.1426 15.049C58.1693 15.021 58.2499 14.9256 58.3213 14.8371C58.5588 14.5436 58.5572 14.5444 58.5987 14.683C58.6186 14.7493 58.6547 14.8694 58.6789 14.95C58.7031 15.0303 58.7688 15.2571 58.8251 15.4537C58.8813 15.6502 58.9482 15.8807 58.9737 15.9655C59.1794 16.65 59.2149 16.7709 59.2631 16.9487C59.2873 17.038 59.3304 17.188 59.3587 17.2818C59.4107 17.4546 59.4657 17.6379 59.5587 17.9481C59.5868 18.0419 59.6244 18.1772 59.6422 18.2486C59.6599 18.3202 59.6863 18.4011 59.7007 18.4286C59.7153 18.4561 59.7377 18.5438 59.751 18.6236C59.8126 18.9978 60.0618 19.3303 60.4083 19.5009C60.6577 19.6237 60.4608 19.6101 63.3913 19.7084C64.8212 19.7563 65.3251 19.785 65.3251 19.8183C65.3251 19.8275 65.2557 19.9096 65.1706 20.0011C64.5874 20.6292 64.2182 21.0242 64.1063 21.1408C64.0348 21.2151 63.852 21.4129 63.7001 21.58C63.548 21.7473 63.3579 21.952 63.2776 22.0349C63.1489 22.1677 62.8269 22.5129 62.2355 23.1521C62.1384 23.2572 61.974 23.4327 61.8703 23.5421C61.1324 24.3207 61.4387 25.4033 62.4562 25.6134C62.8743 25.6995 63.1828 25.5617 63.6524 25.0789C64.0482 24.6719 64.7799 23.895 64.805 23.8548C64.8229 23.8266 65.5164 23.0848 65.7476 22.8465C65.828 22.7636 65.9586 22.624 66.0376 22.5361C66.1866 22.3705 66.8923 21.6125 67.0639 21.4339C67.1175 21.378 67.3076 21.1734 67.4863 20.979C67.6651 20.7848 67.8552 20.58 67.9088 20.5239C68.299 20.1157 68.8175 19.5553 68.9033 19.4488C69.3027 18.9539 69.2678 18.2318 68.8255 17.8344C68.5151 17.5554 68.4778 17.5448 67.6976 17.5129C66.7616 17.4744 64.493 17.3947 63.0442 17.3493L61.8194 17.3108L61.7497 17.0648C61.7115 16.9294 61.6595 16.7492 61.6339 16.6642C61.6084 16.5794 61.5666 16.4404 61.5411 16.3555C61.5157 16.2707 61.452 16.0476 61.3995 15.8598C61.3038 15.5165 61.1511 15.0032 61.1 14.8525C61.0737 14.7749 60.992 14.4913 60.8845 14.1048C60.8572 14.0066 60.8225 13.8896 60.8073 13.8449C60.7923 13.8003 60.7484 13.654 60.71 13.5198C60.6716 13.3859 60.6279 13.2396 60.6127 13.195C60.5977 13.1503 60.563 13.0331 60.5357 12.9348C60.2806 12.0176 60.2233 11.8863 59.986 11.6781C59.7124 11.4378 59.5468 11.3918 58.9882 11.4006C58.1686 11.4135 58.0668 11.4712 57.3739 12.3165C57.3231 12.3787 57.2593 12.453 57.2326 12.4817C57.2057 12.5103 57.1546 12.5696 57.1189 12.6133C57.083 12.657 56.9734 12.787 56.8751 12.9025C56.7767 13.0177 56.6671 13.148 56.6314 13.1917C56.5955 13.2353 56.5444 13.2942 56.5175 13.3227C56.4908 13.3512 56.4103 13.4467 56.3389 13.5353C56.2673 13.6236 56.1868 13.7193 56.1601 13.7478C56.1008 13.8106 55.8432 14.1119 55.7164 14.2665C55.6656 14.3287 55.6018 14.403 55.5751 14.4317C55.5482 14.4603 55.4971 14.5196 55.4614 14.5633C55.4255 14.607 55.3159 14.737 55.2176 14.8525C55.1192 14.9677 55.0096 15.0976 54.9739 15.1409C54.938 15.1842 54.8672 15.2649 54.8165 15.3203C54.7658 15.3759 54.7019 15.4541 54.6748 15.4942C54.6151 15.5824 54.586 15.5851 54.5082 15.5106C54.4448 15.45 54.384 15.3993 54.128 15.1943C54.0391 15.1231 53.9499 15.05 53.93 15.0319C53.8959 15.0005 53.8478 14.9609 53.495 14.6735C53.4147 14.6079 53.3195 14.5301 53.2838 14.5003C53.2481 14.4705 53.1462 14.3876 53.0572 14.316C52.8043 14.1126 52.7404 14.0598 52.6838 14.0073C52.6548 13.9806 52.5586 13.9007 52.4701 13.8297C52.3814 13.7589 52.3014 13.6926 52.2926 13.6827C52.2837 13.6727 52.1743 13.5846 52.0495 13.4867C51.9247 13.3888 51.7993 13.2866 51.7706 13.2599C51.7154 13.208 51.6548 13.1579 51.398 12.9512C51.3091 12.8797 51.2071 12.7968 51.1714 12.7671C51.1355 12.7373 51.0405 12.6593 50.96 12.5938C50.6073 12.3066 50.5593 12.2668 50.525 12.2356C50.5051 12.2172 50.4162 12.1441 50.3272 12.0729C50.0755 11.8715 50.0105 11.8177 49.952 11.7617C49.6551 11.4788 49.4236 11.3965 48.9345 11.4004C48.3259 11.4053 48.0572 11.516 47.7548 11.8861C47.6856 11.971 47.6068 12.0636 47.5801 12.0921C47.5532 12.1205 47.5021 12.1796 47.4664 12.2233C47.4305 12.267 47.3209 12.397 47.2226 12.5125C47.1242 12.6277 47.0146 12.758 46.9789 12.8017C46.943 12.8453 46.8919 12.9046 46.865 12.9333C46.8383 12.9619 46.7747 13.0362 46.7238 13.0983C46.5969 13.2529 46.3395 13.5542 46.28 13.6172C46.2533 13.6456 46.1728 13.7412 46.1014 13.8297C46.0298 13.918 45.9493 14.0136 45.9226 14.0421C45.8957 14.0705 45.8446 14.1296 45.8089 14.1733C45.773 14.217 45.6634 14.347 45.5651 14.4625C45.4667 14.5777 45.3571 14.708 45.3214 14.7517C45.2855 14.7953 45.2344 14.8542 45.2075 14.8827C45.1808 14.9112 45.1003 15.0065 45.0289 15.0947C44.9573 15.183 44.8442 15.3144 44.7773 15.387C44.7104 15.4593 44.6557 15.5297 44.6555 15.543C44.6553 15.5564 44.6344 15.5673 44.6091 15.5673C44.5837 15.5673 44.5582 15.5564 44.5521 15.543C44.542 15.52 44.4901 15.4755 44.1879 15.2308C44.1184 15.1746 44.0375 15.1068 44.0079 15.0798C43.9782 15.0531 43.7721 14.8848 43.55 14.7062C43.3279 14.5274 43.1226 14.3591 43.0937 14.3324C43.0373 14.2802 42.974 14.2277 42.7205 14.0237C42.4904 13.8389 42.4087 13.7706 42.3498 13.7145C42.3213 13.6874 42.2472 13.629 42.185 13.585C42.123 13.5407 42.0489 13.4824 42.0204 13.4553C41.9615 13.3993 41.8796 13.3311 41.6497 13.146C41.3929 12.9395 41.3323 12.8894 41.2771 12.8373C41.2484 12.8106 41.123 12.7086 40.9982 12.6108C40.8734 12.5129 40.764 12.4247 40.7551 12.4152C40.7397 12.3986 40.6823 12.3512 40.3854 12.1108C40.3159 12.0546 40.2323 11.9834 40.1993 11.9528C40.0359 11.8001 39.5763 11.4723 39.5256 11.4723C39.494 11.4723 39.4513 11.4558 39.4308 11.4353C39.3657 11.3702 38.7815 11.384 38.5939 11.4552C38.3691 11.5404 38.1579 11.6837 38.0364 11.8331C37.8872 12.0168 37.6589 12.2878 37.6025 12.3481C37.5758 12.377 37.5122 12.4512 37.4613 12.5133C37.3344 12.6679 37.077 12.9692 37.0175 13.0322C36.9908 13.0606 36.9103 13.1562 36.8389 13.2447C36.7673 13.333 36.6868 13.4286 36.6601 13.4571C36.6332 13.4855 36.5821 13.5446 36.5464 13.5883C36.5105 13.632 36.4009 13.762 36.3026 13.8775C36.2042 13.9927 36.0946 14.123 36.0589 14.1667C36.023 14.2103 35.9719 14.2692 35.945 14.2977C35.9183 14.3262 35.8378 14.4223 35.7664 14.5116C35.6948 14.6007 35.6205 14.6883 35.6012 14.7062C35.5819 14.724 35.4503 14.8774 35.3087 15.0473C35.1672 15.2169 35.0069 15.4041 34.9525 15.4634L34.8536 15.571L34.7717 15.4962C34.7268 15.4548 34.6176 15.3632 34.5293 15.2922C34.4412 15.2214 34.3616 15.1551 34.3526 15.1452C34.3437 15.1352 34.2343 15.0471 34.1095 14.9492C33.9847 14.8513 33.8593 14.7491 33.8306 14.7224C33.7754 14.6705 33.7148 14.6204 33.458 14.4137C33.3691 14.3422 33.2671 14.2593 33.2314 14.2296C33.1955 14.1998 33.1005 14.1218 33.02 14.0563C32.6672 13.7691 32.6193 13.7293 32.585 13.6981C32.5651 13.6797 32.4762 13.6066 32.3872 13.5354C32.1421 13.3393 32.0713 13.2808 32.0146 13.2273C31.9859 13.2006 31.8605 13.0986 31.7357 13.0008C31.6109 12.9029 31.5015 12.8145 31.4926 12.8046C31.4836 12.7946 31.4037 12.7285 31.3147 12.6576C31.0807 12.4709 31.0006 12.4048 30.9413 12.3498C30.9123 12.3231 30.8161 12.2432 30.7276 12.1722C30.6389 12.1014 30.5589 12.0351 30.5501 12.0252C30.5412 12.0152 30.4314 11.9273 30.3064 11.8296C30.1812 11.7319 30.0611 11.6371 30.0392 11.619C30.0176 11.601 29.9811 11.571 29.9581 11.5527C29.8341 11.453 29.5816 11.3912 29.2988 11.3914C28.8632 11.3916 28.6228 11.5267 28.2579 11.9768C28.1869 12.0644 28.1068 12.1593 28.0801 12.1878C28.0208 12.2506 27.7632 12.5519 27.6364 12.7065C27.5856 12.7687 27.5218 12.843 27.4951 12.8717C27.4682 12.9003 27.4171 12.9596 27.3814 13.0033C27.3455 13.047 27.2359 13.177 27.1376 13.2925C27.0392 13.4077 26.9296 13.538 26.8939 13.5817C26.858 13.6253 26.8069 13.6842 26.78 13.7127C26.7533 13.7412 26.6728 13.8367 26.6014 13.9253C26.5298 14.0136 26.4493 14.1093 26.4226 14.1378C26.3633 14.2006 26.1057 14.5019 25.9789 14.6565C25.9281 14.7187 25.8643 14.793 25.8376 14.8217C25.8107 14.8503 25.7596 14.9096 25.7239 14.9533C25.6332 15.064 25.3126 15.4406 25.2463 15.5145C25.1898 15.5773 25.0917 15.5244 24.8606 15.3074C24.8054 15.2555 24.7452 15.2056 24.488 14.9987C24.3991 14.9272 24.2971 14.8443 24.2614 14.8146C24.2255 14.7848 24.1305 14.7068 24.05 14.6413C23.7021 14.358 23.6493 14.3145 23.615 14.2837C23.5951 14.2657 23.5056 14.193 23.4163 14.1218C23.3269 14.0506 23.2374 13.9775 23.2176 13.9594C23.1834 13.928 23.1353 13.8884 22.7825 13.601C22.7022 13.5354 22.607 13.4576 22.5713 13.4278C22.5356 13.398 22.4337 13.3151 22.3447 13.2435C22.091 13.0396 22.0277 12.9871 21.9715 12.9348C21.9424 12.9081 21.7371 12.7398 21.515 12.5612C21.2929 12.3824 21.0876 12.2141 21.0587 12.1874C21.0012 12.134 20.9296 12.0749 20.6855 11.8791C20.5966 11.8079 20.4881 11.7173 20.4443 11.6775C20.2093 11.4636 19.6288 11.3173 19.3213 11.3943Z" fill="#54FC04"/>
<path fill-rule="evenodd" clip-rule="evenodd" d="M26.902 22.3178C26.9424 22.3256 27.0081 22.3256 27.0482 22.3178C27.0886 22.31 27.0557 22.3037 26.9751 22.3037C26.8948 22.3037 26.8618 22.31 26.902 22.3178ZM50.9363 22.3181C50.9857 22.3256 51.0588 22.3254 51.0988 22.3178C51.1387 22.31 51.0984 22.3039 51.0089 22.3041C50.9196 22.3043 50.8868 22.3107 50.9363 22.3181ZM59.5401 26.3137C59.5401 26.3314 59.5805 26.3814 59.6296 26.4248L59.7189 26.5036L59.6376 26.4061C59.593 26.3525 59.5528 26.3024 59.5483 26.295C59.5438 26.2876 59.5401 26.2959 59.5401 26.3137ZM21.1243 28.0392L20.9139 28.2586L21.1333 28.0482C21.254 27.9326 21.3527 27.8339 21.3527 27.8288C21.3527 27.8049 21.3195 27.8355 21.1243 28.0392ZM15.3494 33.8485C15.3498 33.938 15.356 33.9706 15.3635 33.9212C15.3711 33.8719 15.3709 33.7988 15.3631 33.7588C15.3553 33.7188 15.3492 33.7592 15.3494 33.8485ZM18.4729 34.4011C18.4731 34.6513 18.4782 34.7494 18.4844 34.6189C18.4905 34.4887 18.4905 34.2839 18.4842 34.164C18.478 34.0441 18.4729 34.1507 18.4729 34.4011ZM62.6402 34.4173C62.6402 34.6408 62.6455 34.7322 62.6517 34.6205C62.6582 34.5088 62.6582 34.3258 62.6517 34.2141C62.6455 34.1024 62.6402 34.1938 62.6402 34.4173ZM59.5196 34.3686C59.5196 34.5474 59.5251 34.6162 59.5317 34.5218C59.5384 34.4274 59.5382 34.2812 59.5315 34.1968C59.5249 34.1125 59.5194 34.1897 59.5196 34.3686ZM15.3186 34.4499C15.3186 34.5838 15.3243 34.6386 15.3313 34.5717C15.3383 34.5047 15.3383 34.3949 15.3313 34.328C15.3243 34.2609 15.3186 34.3157 15.3186 34.4499ZM59.4828 34.9697C59.4828 35.0323 59.4894 35.0579 59.4976 35.0267C59.5058 34.9955 59.5058 34.9442 59.4976 34.913C59.4894 34.8816 59.4828 34.9071 59.4828 34.9697ZM25.139 48.1974C25.1667 48.251 25.1967 48.2949 25.2057 48.2949C25.2145 48.2949 25.1993 48.251 25.1714 48.1974C25.1437 48.1437 25.1136 48.0999 25.1047 48.0999C25.0959 48.0999 25.1111 48.1437 25.139 48.1974ZM52.829 48.1974C52.8011 48.251 52.7859 48.2949 52.7947 48.2949C52.8036 48.2949 52.8337 48.251 52.8614 48.1974C52.8893 48.1437 52.9045 48.0999 52.8957 48.0999C52.8867 48.0999 52.8567 48.1437 52.829 48.1974ZM54.0965 52.2272C54.0686 52.2809 54.0534 52.3247 54.0622 52.3247C54.0711 52.3247 54.1012 52.2809 54.1289 52.2272C54.1568 52.1736 54.172 52.1297 54.1632 52.1297C54.1542 52.1297 54.1242 52.1736 54.0965 52.2272ZM30.0302 62.2475C30.0302 62.2532 30.0778 62.3006 30.1359 62.353L30.2414 62.4486L30.146 62.3429C30.0571 62.2444 30.0302 62.2224 30.0302 62.2475ZM38.017 66.1602C38.0574 66.168 38.1231 66.168 38.1632 66.1602C38.2036 66.1526 38.1707 66.1461 38.0901 66.1461C38.0098 66.1461 37.9768 66.1526 38.017 66.1602ZM39.8375 66.1604C39.8779 66.168 39.9364 66.1678 39.9674 66.1596C39.9986 66.1514 39.9654 66.1452 39.8939 66.1456C39.8225 66.146 39.797 66.1526 39.8375 66.1604Z" fill="#FCFC4C"/>
<path fill-rule="evenodd" clip-rule="evenodd" d="M27.1018 22.3089C27.094 22.3167 26.8848 22.3317 26.6372 22.3422C26.3895 22.3526 26.1735 22.3693 26.1571 22.3795C26.1407 22.3896 26.0512 22.4042 25.958 22.4119C25.6078 22.4405 25.4913 22.4548 25.3174 22.4895C25.2191 22.5092 25.1107 22.5253 25.0766 22.5255C25.0425 22.5255 24.9863 22.5409 24.9516 22.5595C24.9169 22.578 24.8352 22.6002 24.7698 22.609C24.7047 22.6178 24.622 22.631 24.5862 22.6382C24.5505 22.6455 24.4736 22.6607 24.4155 22.6718C24.3574 22.6831 24.31 22.704 24.31 22.7182C24.31 22.7324 24.2843 22.7402 24.2531 22.7354C24.2219 22.7305 24.1673 22.7465 24.1322 22.7707C24.0969 22.795 24.0405 22.8149 24.0072 22.8149C23.9206 22.8149 23.5008 22.9458 23.4801 22.9791C23.4706 22.9945 23.4415 22.9988 23.4152 22.9889C23.3887 22.9785 23.3674 22.9889 23.3674 23.0119C23.3674 23.0347 23.3582 23.044 23.3471 23.0329C23.3358 23.0216 23.2849 23.0341 23.2336 23.0606C23.1825 23.0871 23.1334 23.1088 23.1244 23.109C23.0964 23.1094 22.999 23.1462 22.8475 23.2141C22.767 23.25 22.6732 23.2849 22.6387 23.2917C22.6044 23.2983 22.5554 23.3211 22.5299 23.3422C22.5043 23.3635 22.4651 23.3835 22.4427 23.3869C22.3635 23.3984 21.7321 23.7271 21.7154 23.7655C21.7093 23.7792 21.691 23.7821 21.6746 23.772C21.6584 23.7618 21.645 23.7661 21.645 23.7815C21.645 23.7967 21.5923 23.8283 21.5282 23.8515C21.464 23.8747 21.3244 23.9473 21.2179 24.0124C21.1116 24.0777 20.9997 24.1458 20.9691 24.1637C20.8435 24.2374 20.5871 24.4217 20.5654 24.4541C20.5528 24.473 20.5309 24.489 20.5167 24.4896C20.4734 24.4911 20.1499 24.7366 20.1499 24.768C20.1499 24.7842 20.1318 24.7975 20.1093 24.7975C20.0869 24.7975 20.0175 24.8414 19.9549 24.895C19.8925 24.9484 19.8303 24.9923 19.8168 24.9923C19.8034 24.9923 19.7925 25.0143 19.7925 25.0412C19.7925 25.0679 19.7757 25.09 19.7552 25.09C19.6852 25.09 19.2968 25.4283 19.3293 25.4609C19.3397 25.4714 19.329 25.48 19.3052 25.48C19.2607 25.48 18.5813 26.158 18.3415 26.4417C18.2674 26.5295 18.1687 26.6451 18.1221 26.6987C18.0757 26.7524 18.0375 26.805 18.0375 26.8159C18.0375 26.8268 17.9856 26.8908 17.9222 26.9581C17.8588 27.0252 17.8132 27.0864 17.8206 27.094C17.8282 27.1014 17.7849 27.1585 17.7247 27.2206C17.6644 27.2828 17.6149 27.3518 17.6149 27.374C17.6149 27.3962 17.5779 27.4544 17.5324 27.5033C17.487 27.5524 17.4614 27.5926 17.4755 27.593C17.4897 27.5932 17.4852 27.6041 17.4657 27.6174C17.3998 27.6616 17.2261 27.9253 17.2438 27.9539C17.2534 27.9695 17.2462 27.9824 17.2276 27.9824C17.2089 27.9824 17.1639 28.0372 17.1272 28.1043C17.0905 28.1714 17.0338 28.27 17.0008 28.3237C16.9681 28.3773 16.9474 28.4321 16.955 28.4455C16.9626 28.459 16.9529 28.4699 16.9332 28.4699C16.9026 28.4699 16.7639 28.732 16.7563 28.8041C16.755 28.8184 16.7321 28.8431 16.7058 28.8593C16.6797 28.8755 16.6678 28.8985 16.6795 28.9104C16.6914 28.9221 16.6738 28.9611 16.6405 28.997C16.6069 29.0327 16.5876 29.0824 16.597 29.1072C16.6066 29.1321 16.5974 29.1524 16.5765 29.1524C16.5557 29.1524 16.5469 29.1659 16.557 29.1821C16.5672 29.1984 16.5642 29.2168 16.5508 29.2228C16.5272 29.2331 16.3474 29.5797 16.3474 29.6146C16.3474 29.6239 16.3152 29.7029 16.2756 29.7901C16.2363 29.8774 16.2031 29.956 16.2021 29.965C16.1992 29.9903 16.0528 30.3655 16.0241 30.4209C16.0099 30.4484 15.9874 30.5215 15.974 30.5835C15.9607 30.6455 15.941 30.7109 15.9303 30.7286C15.9194 30.7465 15.9067 30.7863 15.9018 30.8169C15.8851 30.9244 15.8761 30.9564 15.8576 30.9724C15.834 30.9928 15.6312 31.767 15.6148 31.8986C15.6082 31.9522 15.5885 32.0546 15.5713 32.1262C15.5541 32.1977 15.536 32.3073 15.5309 32.3699C15.5261 32.4325 15.5087 32.5019 15.4921 32.5242C15.4758 32.5464 15.4703 32.5949 15.4798 32.632C15.4896 32.6692 15.4763 32.7714 15.4502 32.859C15.4241 32.9467 15.404 33.0665 15.4056 33.125C15.4069 33.1833 15.3964 33.3993 15.3822 33.6049C15.334 34.2987 15.3667 35.6697 15.4379 35.9449C15.4541 36.0074 15.4752 36.1391 15.4847 36.2374C15.5058 36.453 15.519 36.5197 15.5625 36.6322C15.5809 36.6796 15.5877 36.7264 15.5775 36.7364C15.5676 36.7465 15.5707 36.7808 15.5846 36.8128C15.5984 36.845 15.615 36.9004 15.6212 36.9362C15.6614 37.1613 15.7099 37.3697 15.7384 37.4399C15.7566 37.4846 15.7772 37.5708 15.7846 37.6316C15.7918 37.6922 15.8149 37.7726 15.8357 37.8102C15.8566 37.8479 15.879 37.9225 15.8858 37.9762C15.8925 38.0298 15.9087 38.0883 15.9219 38.106C15.935 38.124 15.9654 38.2008 15.9894 38.2769C16.0134 38.3527 16.0459 38.4149 16.0621 38.4149C16.0781 38.4149 16.0822 38.4295 16.0713 38.4475C16.0602 38.4652 16.0625 38.4982 16.0765 38.5206C16.0904 38.5428 16.106 38.5883 16.1113 38.6214C16.1163 38.6548 16.1643 38.7714 16.2177 38.881C16.2712 38.9906 16.315 39.0988 16.315 39.1214C16.315 39.1438 16.3304 39.1624 16.3494 39.1624C16.3683 39.1624 16.3755 39.176 16.3651 39.1926C16.3421 39.23 16.4125 39.3899 16.4521 39.3899C16.4681 39.3899 16.4742 39.4014 16.4654 39.4157C16.4486 39.4428 16.7452 40.059 16.853 40.2208C16.8879 40.2733 16.9443 40.371 16.9784 40.438C17.0124 40.5051 17.0525 40.5599 17.0675 40.5599C17.0826 40.5599 17.0915 40.5708 17.0874 40.5843C17.0767 40.6194 17.2013 40.8199 17.2339 40.8199C17.2489 40.8199 17.2522 40.8345 17.2413 40.8524C17.2302 40.8704 17.2376 40.885 17.2575 40.885C17.2774 40.885 17.2848 40.8996 17.2737 40.9174C17.2627 40.9353 17.2682 40.9499 17.2859 40.9499C17.3035 40.9499 17.3283 40.9819 17.3407 41.0211C17.3532 41.0603 17.4166 41.181 17.4817 41.2892C17.5468 41.3976 17.6286 41.541 17.6637 41.608C17.6986 41.6751 17.7395 41.7299 17.7543 41.7299C17.7691 41.7299 17.7723 41.7445 17.7612 41.7625C17.7502 41.7802 17.7567 41.7949 17.7756 41.7949C17.7945 41.7949 17.8099 41.8169 17.8099 41.8436C17.8099 41.8705 17.8392 41.9216 17.875 41.9575C17.9107 41.9932 17.9326 42.0224 17.9234 42.0224C17.899 42.0224 18.0732 42.2942 18.1155 42.3225C18.1352 42.3356 18.1406 42.3467 18.1276 42.3469C18.1145 42.3473 18.1328 42.3949 18.1683 42.453C18.2036 42.5111 18.252 42.599 18.2754 42.6486C18.2988 42.6981 18.328 42.7285 18.3403 42.7162C18.3524 42.7041 18.3625 42.7178 18.3625 42.7468C18.3625 42.7759 18.399 42.8533 18.4437 42.9192C18.4885 42.9851 18.525 43.0588 18.525 43.0832C18.525 43.1076 18.5396 43.1275 18.5575 43.1275C18.5753 43.1275 18.5899 43.1493 18.5899 43.1762C18.5899 43.203 18.6192 43.2542 18.655 43.2899C18.6907 43.3256 18.7192 43.3627 18.7184 43.372C18.7149 43.4093 18.8637 43.6474 18.8904 43.6474C18.906 43.6474 18.9097 43.662 18.8988 43.6799C18.8877 43.6979 18.8927 43.7125 18.9099 43.7125C18.9271 43.7125 18.9555 43.7534 18.9729 43.8037C18.9904 43.8541 19.0294 43.9198 19.0597 43.95C19.0899 43.9802 19.1059 44.005 19.0951 44.005C19.0649 44.005 19.1648 44.1836 19.2215 44.2306C19.2496 44.2538 19.2724 44.3004 19.2724 44.3339C19.2724 44.3675 19.287 44.395 19.305 44.395C19.3229 44.395 19.335 44.4059 19.3319 44.4194C19.3227 44.4584 19.4103 44.6224 19.4401 44.6224C19.4551 44.6224 19.4674 44.6395 19.4674 44.6606C19.4674 44.6814 19.4924 44.7261 19.5226 44.7596C19.553 44.7932 19.5805 44.838 19.5838 44.8597C19.5936 44.9246 19.7318 45.1424 19.7632 45.1424C19.7792 45.1424 19.7893 45.1533 19.7856 45.1668C19.7749 45.2054 19.8868 45.4193 19.9578 45.4956C19.9933 45.5338 20.0109 45.5654 19.9968 45.566C19.9828 45.5665 19.9931 45.5849 20.02 45.6065C20.0467 45.6284 20.0739 45.675 20.0799 45.7103C20.0914 45.7756 20.3032 46.1172 20.3547 46.1535C20.3703 46.1644 20.3816 46.1864 20.38 46.2022C20.3782 46.2182 20.3958 46.2531 20.4186 46.2799C20.4416 46.3068 20.4637 46.3432 20.4674 46.3612C20.4713 46.3791 20.4995 46.423 20.5302 46.4587C20.5608 46.4944 20.5826 46.531 20.5787 46.54C20.5748 46.549 20.6083 46.6123 20.6532 46.681C20.6982 46.7496 20.7349 46.8204 20.7349 46.8383C20.7349 46.8563 20.7642 46.9081 20.8 46.9536C20.8357 46.999 20.865 47.0569 20.865 47.0825C20.865 47.108 20.8796 47.1197 20.8975 47.1086C20.9153 47.0977 20.9299 47.1187 20.9299 47.1554C20.9299 47.1923 20.941 47.2225 20.9545 47.2225C20.9681 47.2225 20.9997 47.2699 21.0251 47.328C21.0504 47.3861 21.0799 47.4409 21.0906 47.4499C21.1311 47.4836 21.2366 47.6622 21.2296 47.6856C21.2257 47.6989 21.238 47.71 21.2569 47.71C21.2758 47.71 21.2823 47.7246 21.2712 47.7427C21.26 47.7607 21.2737 47.7841 21.3014 47.7948C21.3293 47.8055 21.3443 47.8268 21.3349 47.8422C21.3254 47.8574 21.3474 47.8999 21.3839 47.9362C21.4201 47.9726 21.4476 48.006 21.4445 48.0105C21.4322 48.0292 21.5551 48.2583 21.6077 48.3149C21.6391 48.3486 21.6703 48.3907 21.6771 48.4087C21.6838 48.4266 21.7044 48.4814 21.723 48.5305C21.7415 48.5797 21.7682 48.6199 21.7821 48.6199C21.7961 48.6199 21.8074 48.6374 21.8074 48.6589C21.8074 48.7014 21.9663 48.9467 22.0186 48.9851C22.0365 48.9982 22.0406 49.0091 22.0278 49.0095C22.0092 49.0099 22.2536 49.447 22.4275 49.7249C22.4443 49.7516 22.4759 49.8103 22.4977 49.855C22.5195 49.8996 22.5463 49.9435 22.5572 49.9525C22.5679 49.9613 22.6243 50.0564 22.6824 50.1637C22.7405 50.2709 22.8161 50.3891 22.8507 50.4261C22.885 50.4632 22.9031 50.5034 22.891 50.5154C22.8789 50.5275 22.8887 50.5375 22.9125 50.5375C22.9363 50.5375 22.9468 50.5463 22.9361 50.5572C22.9152 50.578 23.0624 50.8315 23.1151 50.8661C23.1318 50.877 23.1443 50.8953 23.1428 50.9066C23.1344 50.9688 23.143 50.9944 23.1671 50.9795C23.182 50.9704 23.1942 50.9803 23.1944 51.002C23.1946 51.0236 23.2529 51.1361 23.3239 51.2524C23.3951 51.3686 23.4947 51.5404 23.5454 51.6344C23.5963 51.7282 23.6509 51.805 23.6671 51.805C23.6831 51.805 23.6876 51.819 23.6769 51.8362C23.6663 51.8535 23.6862 51.896 23.7211 51.931C23.756 51.9659 23.7751 52.0039 23.7638 52.0152C23.7523 52.0267 23.7572 52.0462 23.7746 52.0585C23.7921 52.071 23.8245 52.1141 23.8469 52.1542C23.8691 52.1946 23.9058 52.2603 23.928 52.3005C23.9505 52.3408 23.9778 52.381 23.9887 52.39C23.9998 52.3988 24.0398 52.4674 24.0776 52.5421C24.1156 52.6168 24.1616 52.6874 24.18 52.6987C24.1985 52.7102 24.2051 52.733 24.1948 52.7498C24.1845 52.7663 24.1901 52.78 24.2075 52.78C24.2246 52.78 24.2545 52.8202 24.2738 52.8693C24.3077 52.9551 24.3732 53.0707 24.4075 53.1049C24.4165 53.1138 24.4446 53.1614 24.4699 53.2105C24.4953 53.2597 24.529 53.2999 24.5448 53.2999C24.5608 53.2999 24.5647 53.3145 24.5538 53.3324C24.5427 53.3504 24.5501 53.365 24.57 53.365C24.5899 53.365 24.5979 53.3784 24.5875 53.3952C24.5774 53.4118 24.5834 53.4344 24.601 53.4453C24.6187 53.4562 24.6571 53.5157 24.6866 53.5775C24.7158 53.6393 24.7529 53.6899 24.7687 53.6899C24.7845 53.6899 24.7975 53.7113 24.7975 53.7376C24.7975 53.7638 24.856 53.8757 24.9274 53.9864C24.999 54.097 25.0575 54.1996 25.0575 54.2144C25.0575 54.2522 25.2901 54.614 25.3231 54.627C25.3381 54.6331 25.3424 54.6508 25.3328 54.6664C25.3231 54.6822 25.3449 54.7249 25.3814 54.7612C25.4176 54.7976 25.4473 54.8384 25.4473 54.8519C25.4471 54.8651 25.4658 54.8981 25.4886 54.925C25.5116 54.9517 25.535 54.9884 25.5407 55.0061C25.5463 55.024 25.5746 55.0788 25.6037 55.128C25.6608 55.2249 25.7273 55.2512 25.6938 55.1639C25.6813 55.1311 25.699 55.0861 25.7392 55.0488C25.7753 55.0151 25.8049 54.9971 25.8049 55.0088C25.8049 55.0207 25.8246 55.0141 25.8486 54.9942C25.8726 54.9743 25.9018 54.9677 25.9135 54.9794C25.9254 54.9911 25.935 54.9769 25.935 54.9476C25.935 54.9176 25.9533 54.9014 25.9767 54.9106C25.9997 54.9193 26.0494 54.8979 26.0871 54.8626C26.1247 54.8275 26.1645 54.8078 26.1752 54.8185C26.1861 54.8294 26.1949 54.8187 26.1949 54.7949C26.1949 54.7711 26.2033 54.76 26.2136 54.7702C26.231 54.7875 26.3006 54.7538 26.73 54.5198C26.8189 54.4714 26.9453 54.3891 27.011 54.3371C27.0767 54.285 27.1467 54.2425 27.1666 54.2425C27.1863 54.2425 27.2025 54.2304 27.2025 54.216C27.2025 54.2013 27.261 54.1565 27.3325 54.1163C27.4039 54.0761 27.4624 54.0299 27.4624 54.0136C27.4624 53.997 27.4991 53.9746 27.5437 53.9632C27.5884 53.9521 27.625 53.9332 27.625 53.9213C27.625 53.9094 27.6907 53.8638 27.7713 53.8199C27.8516 53.776 27.9175 53.7287 27.9175 53.715C27.9175 53.7012 27.9372 53.6899 27.9612 53.6899C27.9852 53.6899 28.0314 53.6606 28.0638 53.6249C28.0962 53.5892 28.1406 53.56 28.1628 53.56C28.2274 53.56 28.2416 53.4755 28.1894 53.4011C28.163 53.3634 28.1531 53.3322 28.1675 53.3318C28.182 53.3316 28.179 53.3207 28.1613 53.3075C28.1433 53.2944 28.0995 53.2261 28.0638 53.1557C28.0279 53.0854 27.9552 52.9684 27.9019 52.8958C27.8489 52.8231 27.8042 52.7564 27.8031 52.7474C27.7949 52.6895 27.65 52.4549 27.6223 52.4549C27.6038 52.4549 27.5977 52.4403 27.6087 52.4224C27.6198 52.4046 27.6108 52.39 27.589 52.39C27.5671 52.39 27.5581 52.381 27.5689 52.3701C27.5897 52.3494 27.4425 52.0957 27.3899 52.0612C27.3731 52.0503 27.362 52.0357 27.3653 52.0288C27.3754 52.0064 27.2861 51.8219 27.2541 51.7993C27.2372 51.7874 27.22 51.7551 27.2159 51.7274C27.2081 51.6745 27.0796 51.4776 27.0307 51.4438C27.0149 51.4329 27.0034 51.4109 27.0049 51.3951C27.0067 51.3791 26.9895 51.3432 26.9671 51.3151C26.9447 51.2871 26.9217 51.2432 26.9164 51.2176C26.9109 51.1921 26.8825 51.1529 26.8532 51.1305C26.824 51.1082 26.8111 51.0899 26.8248 51.0899C26.8382 51.0899 26.8191 51.0474 26.7822 50.9955C26.7452 50.9437 26.715 50.8867 26.715 50.869C26.715 50.8512 26.6922 50.828 26.6641 50.8173C26.6362 50.8066 26.6225 50.783 26.6338 50.7649C26.645 50.7467 26.6239 50.6935 26.587 50.6465C26.5502 50.5995 26.52 50.5404 26.52 50.5149C26.52 50.4893 26.5053 50.4776 26.4874 50.4887C26.4697 50.4997 26.455 50.4786 26.455 50.4419C26.455 50.4051 26.4394 50.3749 26.4205 50.3749C26.4016 50.3749 26.3942 50.362 26.4039 50.3462C26.4137 50.3302 26.4 50.2992 26.3733 50.2772C26.3468 50.2551 26.325 50.2169 26.325 50.1921C26.325 50.1676 26.3139 50.1475 26.3002 50.1475C26.2754 50.1475 26.2165 50.0512 26.1764 49.9443C26.1645 49.9131 26.1411 49.8874 26.1243 49.8874C26.1073 49.8874 26.1027 49.8727 26.1138 49.8546C26.1249 49.8367 26.1112 49.8133 26.0836 49.8025C26.0557 49.7918 26.0407 49.7705 26.05 49.7551C26.0596 49.7399 26.0375 49.6974 26.0011 49.6612C25.9648 49.6247 25.9422 49.5949 25.951 49.5949C25.9722 49.5949 25.7675 49.2593 25.7306 49.2337C25.7148 49.2228 25.7016 49.201 25.7012 49.185C25.7 49.1341 25.6048 48.9617 25.2909 48.4414C25.178 48.2542 25.052 48.0382 25.0111 47.9611C24.895 47.7429 24.8494 47.6673 24.8055 47.6195C24.7833 47.5951 24.765 47.562 24.765 47.5458C24.765 47.5062 24.5472 47.1671 24.5048 47.1412C24.4865 47.1297 24.4799 47.1069 24.49 47.0901C24.5004 47.0735 24.4908 47.0599 24.469 47.0599C24.4471 47.0599 24.4381 47.0509 24.4493 47.0398C24.4604 47.0287 24.419 46.9407 24.3572 46.8442C24.2954 46.7477 24.2449 46.6607 24.2449 46.6507C24.2449 46.641 24.2026 46.5714 24.1509 46.4963C24.0992 46.421 24.0078 46.2701 23.9479 46.1609C23.7172 45.7411 23.6486 45.6299 23.6203 45.6299C23.6043 45.6299 23.6002 45.6153 23.6112 45.5974C23.6223 45.5796 23.6158 45.565 23.5969 45.565C23.578 45.565 23.5624 45.5451 23.5624 45.5211C23.5624 45.4969 23.5185 45.4166 23.4649 45.3425C23.4113 45.2686 23.3674 45.1851 23.3674 45.157C23.3674 45.129 23.353 45.1149 23.3354 45.1258C23.3169 45.1373 23.3114 45.1243 23.3226 45.0954C23.3333 45.0675 23.3257 45.0449 23.306 45.0449C23.2861 45.0449 23.2699 45.0229 23.2699 44.9962C23.2699 44.9693 23.2553 44.9474 23.2375 44.9474C23.2196 44.9474 23.205 44.9193 23.205 44.8852C23.205 44.8509 23.1927 44.8179 23.1775 44.8121C23.1625 44.806 23.1295 44.7629 23.1043 44.7161C23.0792 44.6693 23.0182 44.5561 22.9688 44.4642C22.9193 44.3726 22.8645 44.2975 22.8469 44.2975C22.8294 44.2975 22.8187 44.2846 22.8232 44.2688C22.8339 44.2308 22.6461 43.9075 22.6131 43.9075C22.5991 43.9075 22.5874 43.8845 22.5874 43.8564C22.5874 43.8283 22.5459 43.7443 22.495 43.6696C22.4443 43.5949 22.3318 43.4058 22.2452 43.2494C22.1586 43.093 22.0749 42.9649 22.0593 42.9649C22.0439 42.9649 22.0389 42.9526 22.0482 42.9374C22.0576 42.9221 22.04 42.8814 22.0094 42.8467C21.9788 42.812 21.949 42.7622 21.9431 42.7361C21.9371 42.71 21.9137 42.6667 21.8911 42.64C21.8682 42.6131 21.8156 42.529 21.7739 42.453C21.7321 42.3771 21.6865 42.3149 21.6725 42.3149C21.6584 42.3149 21.6555 42.2929 21.6656 42.2662C21.676 42.2393 21.6703 42.2174 21.653 42.2174C21.6356 42.2174 21.5746 42.1223 21.5174 42.0062C21.4601 41.89 21.3997 41.7949 21.3829 41.7949C21.3661 41.7949 21.3525 41.7791 21.3525 41.7596C21.3525 41.7286 21.252 41.5433 21.0483 41.1985C21.0149 41.1422 20.9734 41.0872 20.956 41.0763C20.9387 41.0654 20.9246 41.0433 20.9246 41.0275C20.9252 40.9786 20.7897 40.7549 20.7595 40.7549C20.7439 40.7549 20.7394 40.7415 20.7495 40.7251C20.7682 40.6947 20.4613 40.1697 20.4038 40.1338C20.3862 40.1229 20.3734 40.1009 20.3749 40.0851C20.3767 40.0691 20.3529 40.027 20.3223 39.9911C20.2917 39.9554 20.2692 39.9262 20.2724 39.9262C20.2755 39.9262 20.2696 39.8934 20.2591 39.8534C20.2486 39.8135 20.2302 39.7867 20.218 39.7943C20.2059 39.8018 20.1938 39.7795 20.1912 39.7448C20.1885 39.7101 20.1632 39.6584 20.1349 39.6302C20.1064 39.6017 20.0614 39.5325 20.0347 39.4761C19.968 39.3347 19.8816 39.1895 19.833 39.1368C19.8108 39.1126 19.7925 39.0727 19.7925 39.0479C19.7925 39.0233 19.7741 38.9915 19.7519 38.9771C19.7295 38.9629 19.654 38.8379 19.584 38.6992C19.5142 38.5608 19.4438 38.4475 19.4278 38.4475C19.4118 38.4475 19.4058 38.436 19.4146 38.4217C19.4231 38.4077 19.3734 38.2831 19.304 38.1448C19.2346 38.0066 19.1747 37.883 19.1712 37.8699C19.1675 37.8568 19.1579 37.8206 19.1497 37.7894C19.1416 37.758 19.1211 37.7324 19.1043 37.7324C19.0873 37.7324 19.0813 37.7199 19.0907 37.7047C19.1002 37.6895 19.0881 37.6499 19.0638 37.6168C19.0396 37.5834 19.0269 37.5374 19.0359 37.5144C19.0446 37.4914 19.0388 37.4725 19.0228 37.4725C19.0068 37.4725 18.9916 37.4467 18.9889 37.4155C18.9861 37.3843 18.9407 37.227 18.8877 37.0661C18.8348 36.9052 18.7601 36.642 18.7219 36.4811C18.6303 36.0964 18.6203 36.0482 18.6036 35.9181C18.5958 35.8575 18.5815 35.7951 18.572 35.7795C18.5622 35.7639 18.5464 35.6081 18.5369 35.4336C18.5275 35.259 18.5064 35.0576 18.4903 34.9862C18.4318 34.7279 18.5074 33.1129 18.5848 32.9621C18.6008 32.9313 18.6236 32.8256 18.6359 32.7274C18.648 32.6291 18.6712 32.5049 18.6872 32.4512C18.7336 32.2952 18.8333 31.9017 18.835 31.8662C18.836 31.8483 18.8549 31.8005 18.8773 31.76C18.8998 31.7192 18.9097 31.6728 18.8998 31.6564C18.8896 31.6402 18.8972 31.617 18.9167 31.6051C18.936 31.5932 18.9444 31.5638 18.9352 31.54C18.9261 31.5162 18.929 31.492 18.9419 31.4864C18.9663 31.4756 19.1427 31.0724 19.1425 31.0279C19.1425 31.0139 19.2004 30.8838 19.2714 30.7389C19.3424 30.5941 19.3914 30.4595 19.38 30.4396C19.3687 30.4199 19.3715 30.4145 19.3859 30.4275C19.4212 30.4593 19.5054 30.2936 19.4783 30.246C19.4666 30.2255 19.469 30.2195 19.4834 30.2325C19.498 30.2458 19.5271 30.2237 19.5483 30.1838C19.5696 30.1438 19.654 29.9845 19.7361 29.8298C19.8182 29.6752 19.8937 29.5568 19.9038 29.5672C19.9141 29.5773 19.9225 29.5613 19.9225 29.5315C19.9225 29.5019 19.9362 29.4775 19.953 29.4775C19.9695 29.4775 20.0015 29.427 20.0237 29.3654C20.046 29.3037 20.0737 29.2593 20.0854 29.2663C20.0969 29.2735 20.1417 29.2209 20.185 29.1495C20.2283 29.0781 20.3038 28.9728 20.3525 28.9155C20.4015 28.8582 20.4416 28.7921 20.442 28.7687C20.4422 28.7453 20.4539 28.7332 20.4679 28.7417C20.4818 28.7505 20.5294 28.7037 20.5734 28.638C20.6177 28.5725 20.6867 28.492 20.7271 28.4592C20.7675 28.4264 20.792 28.3859 20.7817 28.3691C20.7712 28.3521 20.7821 28.3424 20.8057 28.3473C20.8293 28.3521 20.8451 28.3379 20.8406 28.3155C20.8361 28.2932 20.8437 28.2786 20.8576 28.2831C20.8714 28.2876 20.9408 28.2258 21.012 28.1458C21.083 28.0661 21.1846 27.9637 21.2376 27.9185C21.4119 27.7695 21.4995 27.6843 21.4531 27.7086C21.4231 27.7242 21.4153 27.7196 21.4307 27.695C21.4433 27.6743 21.4747 27.6574 21.5003 27.6574C21.526 27.6574 21.5652 27.6281 21.5874 27.5924C21.6099 27.5567 21.6407 27.5275 21.6563 27.5275C21.6927 27.5275 21.886 27.3652 21.8505 27.3643C21.8359 27.3637 21.871 27.3401 21.9289 27.3116C21.9868 27.2831 22.026 27.2469 22.0162 27.2311C22.0067 27.2153 22.0219 27.2024 22.0504 27.2024C22.0788 27.2024 22.1104 27.1806 22.1206 27.1539C22.1309 27.1271 22.1506 27.1123 22.1643 27.1207C22.1781 27.1293 22.2313 27.0995 22.2828 27.0546C22.4137 26.9403 22.4527 26.9099 22.4683 26.9099C22.4755 26.9099 22.6406 26.8132 22.8352 26.6952C23.0297 26.5771 23.2837 26.4357 23.4 26.3809C23.5162 26.3261 23.616 26.2691 23.6221 26.2541C23.6281 26.2393 23.6464 26.2352 23.6628 26.2454C23.679 26.2555 23.6925 26.2506 23.6925 26.2348C23.6925 26.2188 23.7108 26.2058 23.733 26.2056C23.7555 26.2056 23.8469 26.1716 23.9362 26.1303C24.0255 26.089 24.1133 26.0537 24.1312 26.0519C24.1579 26.0492 24.3408 25.9829 24.7 25.8458C24.7267 25.8355 24.7603 25.8296 24.7743 25.8327C24.7886 25.8359 24.8324 25.8206 24.8718 25.7992C24.9114 25.7777 24.9656 25.7581 24.9925 25.7555C25.077 25.7477 25.3974 25.6637 25.4313 25.6405C25.449 25.6282 25.4911 25.6227 25.5245 25.628C25.558 25.6334 25.6237 25.6229 25.6707 25.6048C25.7177 25.5866 25.8293 25.5652 25.9188 25.5568C26.0994 25.5402 26.1719 25.5287 26.2944 25.4973C26.457 25.4556 26.8994 25.454 39.0162 25.4542C51.3294 25.4546 51.6416 25.4554 51.7003 25.4917C51.7181 25.5026 51.7888 25.52 51.8581 25.5301C51.9271 25.5404 52.0714 25.5644 52.1787 25.5833C52.2859 25.6024 52.4103 25.6217 52.455 25.6262C52.4996 25.6309 52.5581 25.642 52.585 25.651C52.6972 25.6884 52.8996 25.7411 52.9803 25.7536C53.0279 25.761 53.0936 25.7815 53.1265 25.799C53.1593 25.8166 53.1934 25.8312 53.2024 25.8316C53.2584 25.8335 53.42 25.8838 53.453 25.9098C53.4744 25.9267 53.5074 25.931 53.5261 25.9195C53.5446 25.908 53.56 25.9156 53.56 25.9365C53.56 25.9573 53.5809 25.9663 53.6062 25.9566C53.6318 25.9468 53.6704 25.9601 53.6919 25.986C53.7135 26.0119 53.7474 26.0309 53.7675 26.0277C53.8075 26.0215 53.8512 26.0377 54.108 26.1521C54.2037 26.1949 54.2987 26.2329 54.3192 26.2368C54.3394 26.2405 54.3634 26.252 54.3724 26.2621C54.4011 26.2947 54.7129 26.4378 54.738 26.43C54.7515 26.4257 54.7624 26.4353 54.7624 26.4513C54.7624 26.4827 54.9913 26.6028 55.0305 26.5917C55.044 26.588 55.0549 26.602 55.0549 26.6229C55.0549 26.6437 55.0645 26.6512 55.0762 26.6396C55.0879 26.6279 55.1138 26.641 55.1339 26.6685C55.154 26.696 55.1969 26.7223 55.229 26.7272C55.2612 26.7319 55.2975 26.75 55.3094 26.7676C55.3215 26.7851 55.4344 26.8672 55.5603 26.9503C55.6863 27.0334 55.84 27.1457 55.9016 27.2001C55.9632 27.2545 56.0221 27.2991 56.0322 27.2993C56.0424 27.2997 56.1073 27.3502 56.1764 27.4118C56.2456 27.4733 56.3144 27.5162 56.3294 27.5068C56.3444 27.4976 56.3526 27.5043 56.3476 27.5218C56.3427 27.5392 56.3464 27.5513 56.3559 27.5485C56.3653 27.5458 56.587 27.763 56.8487 28.0312C57.4273 28.6244 57.4275 28.6246 57.4275 28.6649C57.4275 28.6829 57.4493 28.6975 57.4762 28.6975C57.5029 28.6975 57.5252 28.7156 57.5256 28.738C57.5259 28.7605 57.5991 28.8718 57.6882 28.9857C57.7771 29.0994 57.85 29.2062 57.85 29.2232C57.85 29.24 57.8668 29.2433 57.8875 29.2306C57.9091 29.2172 57.9163 29.2216 57.9044 29.2408C57.8931 29.2591 57.9091 29.3039 57.9399 29.3404C57.9709 29.3771 58.0207 29.4361 58.0505 29.472C58.0803 29.5077 58.0961 29.5455 58.0856 29.5559C58.0753 29.5664 58.0821 29.575 58.101 29.575C58.1199 29.575 58.1439 29.6087 58.1542 29.6501C58.1646 29.6914 58.2104 29.7682 58.2562 29.8207C58.3018 29.8731 58.3477 29.949 58.358 29.9894C58.3685 30.0295 58.3869 30.0625 58.399 30.0625C58.4188 30.0625 58.5039 30.2395 58.5124 30.2992C58.5146 30.3133 58.5308 30.3353 58.5487 30.348C58.5667 30.3606 58.5856 30.3918 58.591 30.417C58.5965 30.4421 58.653 30.5738 58.7166 30.7095C58.8771 31.0517 59.1677 31.8495 59.1938 32.0197C59.1987 32.0505 59.2125 32.0858 59.225 32.0983C59.2373 32.1106 59.2474 32.1593 59.2474 32.2063C59.2474 32.2535 59.2599 32.3058 59.2751 32.3227C59.2993 32.3498 59.3675 32.6868 59.3913 32.8968C59.396 32.9378 59.411 33.0058 59.4247 33.0483C59.4383 33.0906 59.4533 33.1784 59.4582 33.2433C59.4631 33.3081 59.4798 33.5148 59.4954 33.7024C59.5413 34.2562 59.5331 34.6423 59.4553 35.5539C59.4484 35.6336 59.4293 35.7434 59.4128 35.7976C59.3962 35.8518 59.3667 35.9913 59.3476 36.1075C59.3004 36.3918 59.2934 36.4259 59.2451 36.595C59.2221 36.6753 59.202 36.7631 59.2004 36.79C59.199 36.8167 59.1889 36.8534 59.1784 36.8711C59.1677 36.889 59.1326 36.9914 59.1004 37.0987C59.0682 37.2059 59.0278 37.312 59.0107 37.3342C58.9935 37.3567 58.9881 37.375 58.9986 37.375C59.0089 37.375 58.9654 37.4955 58.9019 37.6431C58.8383 37.7905 58.7706 37.9477 58.7517 37.9924C58.7326 38.0372 58.7193 38.0846 58.7223 38.098C58.7252 38.1115 58.7115 38.1224 58.6922 38.1224C58.6729 38.1224 58.6638 38.1407 58.6718 38.163C58.68 38.1854 58.6653 38.2279 58.6396 38.2577C58.6137 38.2874 58.5879 38.3313 58.5821 38.3552C58.5548 38.4693 58.5228 38.545 58.5021 38.545C58.4896 38.545 58.4366 38.6362 58.3841 38.748C58.3317 38.8597 58.2705 38.9629 58.248 38.9771C58.2258 38.9915 58.2075 39.0181 58.2075 39.0364C58.2075 39.0678 57.9536 39.5171 57.9159 39.5524C57.8789 39.5873 57.8175 39.7163 57.8175 39.7598C57.8175 39.785 57.7947 39.8142 57.7666 39.825C57.7387 39.8357 57.725 39.8593 57.7362 39.8772C57.7473 39.8952 57.7432 39.91 57.7272 39.91C57.6985 39.91 57.6328 40.028 57.6297 40.0851C57.6287 40.1009 57.6156 40.1229 57.6006 40.1338C57.5673 40.158 57.3949 40.4209 57.3949 40.4476C57.3949 40.4581 57.3571 40.5162 57.3109 40.5769C57.2646 40.6375 57.2364 40.7025 57.2479 40.721C57.2594 40.7397 57.2561 40.7549 57.2405 40.7549C57.2075 40.7549 57.0513 41.019 57.0624 41.0556C57.0665 41.0689 57.0544 41.08 57.0355 41.08C57.0166 41.08 57.0102 41.0946 57.0213 41.1124C57.0322 41.1303 57.0265 41.1449 57.0086 41.1449C56.9907 41.1449 56.9569 41.1796 56.9335 41.2219C56.7717 41.516 56.7356 41.5856 56.7379 41.5999C56.7393 41.6088 56.7194 41.6279 56.6939 41.6422C56.6683 41.6564 56.6475 41.6913 56.6475 41.7198C56.6475 41.7482 56.6247 41.7882 56.597 41.8085C56.5691 41.8288 56.5429 41.867 56.5389 41.8933C56.5346 41.9197 56.5077 41.9778 56.479 42.0224C56.3101 42.2859 56.1512 42.5639 56.1502 42.5979C56.1496 42.6195 56.1379 42.6302 56.1245 42.6218C56.1021 42.608 56.0638 42.6846 56.0629 42.7455C56.0627 42.7589 56.0326 42.7997 55.9964 42.8362C55.9599 42.8724 55.9388 42.9163 55.9494 42.9337C55.9601 42.9508 55.956 42.9649 55.9402 42.9649C55.9244 42.9649 55.8488 43.0748 55.7717 43.2092C55.6949 43.3435 55.619 43.4615 55.6031 43.4715C55.5871 43.4814 55.5834 43.5046 55.5949 43.5233C55.6064 43.5419 55.6023 43.5664 55.5857 43.5779C55.5289 43.6171 55.4125 43.8037 55.4125 43.8556C55.4125 43.8841 55.4008 43.9075 55.3868 43.9075C55.3579 43.9075 55.176 44.2072 55.1895 44.2324C55.1943 44.2413 55.1698 44.2819 55.1347 44.3226C55.0569 44.4133 54.9369 44.6077 54.8847 44.728C54.8632 44.7772 54.8344 44.8174 54.8203 44.8174C54.8065 44.8174 54.795 44.8466 54.795 44.8825C54.795 44.9182 54.784 44.9474 54.7706 44.9474C54.7571 44.9474 54.7099 45.0168 54.6655 45.1019C54.6212 45.1867 54.5354 45.3263 54.4748 45.4119C54.4139 45.4975 54.3722 45.5755 54.382 45.5853C54.3917 45.595 54.371 45.6315 54.3361 45.6664C54.3012 45.7013 54.2806 45.7426 54.2903 45.7584C54.2999 45.774 54.2967 45.7918 54.2833 45.7978C54.2515 45.8119 54.1411 45.9764 54.0799 46.1012C54.0536 46.1549 53.9697 46.2976 53.8935 46.4183C53.8172 46.5392 53.755 46.6599 53.755 46.6864C53.755 46.7131 53.7424 46.735 53.727 46.735C53.7116 46.735 53.664 46.8044 53.6213 46.8892C53.5788 46.9742 53.5316 47.0526 53.5165 47.0636C53.5017 47.0745 53.4943 47.0922 53.5004 47.1031C53.5064 47.1139 53.4855 47.1527 53.4543 47.1893C53.4231 47.2258 53.3974 47.2701 53.3974 47.2878C53.3974 47.3056 53.382 47.32 53.3631 47.32C53.3442 47.32 53.3377 47.3346 53.3487 47.3524C53.3598 47.3703 53.3549 47.3849 53.3381 47.3849C53.3212 47.3849 53.2816 47.4397 53.2502 47.5068C53.2186 47.5739 53.1835 47.6359 53.172 47.6449C53.1607 47.6538 53.108 47.7453 53.055 47.848C53.0021 47.9506 52.9477 48.0349 52.9343 48.0349C52.921 48.0349 52.9099 48.0547 52.9099 48.0791C52.9099 48.1035 52.873 48.1778 52.8278 48.2445C52.7826 48.3112 52.7424 48.3825 52.7383 48.4032C52.7344 48.4241 52.7137 48.4557 52.6923 48.4736C52.671 48.4915 52.649 48.5276 52.6435 48.5536C52.6383 48.5797 52.6104 48.6275 52.5821 48.6598C52.5536 48.6922 52.5103 48.7585 52.486 48.8072C52.4616 48.8562 52.4236 48.918 52.4017 48.9449C52.3799 48.9716 52.3623 49.0009 52.3627 49.0099C52.3643 49.0442 52.2752 49.2232 52.2364 49.2635C52.1742 49.3289 51.9581 49.7037 51.9573 49.7479C51.9569 49.7694 51.9363 49.7949 51.9113 49.8045C51.8864 49.814 51.875 49.8367 51.8862 49.8546C51.8973 49.8727 51.8908 49.8874 51.8719 49.8874C51.853 49.8874 51.8374 49.9094 51.8374 49.9361C51.8374 49.963 51.8228 49.9849 51.805 49.9849C51.7871 49.9849 51.7725 50.0135 51.7725 50.0482C51.7725 50.0831 51.7541 50.1233 51.7319 50.1377C51.6859 50.167 51.5827 50.3298 51.5554 50.4156C51.5455 50.4468 51.5244 50.4724 51.5086 50.4724C51.4928 50.4724 51.4796 50.4907 51.4792 50.5131C51.4788 50.5353 51.4499 50.5903 51.415 50.635C51.3799 50.6796 51.3511 50.7422 51.3507 50.774C51.3503 50.806 51.3281 50.8403 51.3012 50.8507C51.2744 50.861 51.2524 50.8861 51.2524 50.9064C51.2522 50.9269 51.2091 51.0086 51.1567 51.0878C51.104 51.1669 51.0683 51.2438 51.0775 51.2584C51.0865 51.273 51.0781 51.2849 51.059 51.2849C51.0399 51.2849 50.9915 51.3543 50.9515 51.4394C50.9114 51.5242 50.8597 51.6086 50.8363 51.6271C50.8129 51.6455 50.7899 51.6819 50.7852 51.7083C50.7805 51.7346 50.7454 51.8073 50.7074 51.8699C50.6694 51.9325 50.6346 51.9982 50.6302 52.0162C50.6259 52.0341 50.596 52.077 50.5637 52.1117C50.5313 52.1462 50.505 52.1891 50.505 52.2067C50.505 52.2242 50.4841 52.2617 50.4588 52.2899C50.4334 52.318 50.4079 52.3619 50.4018 52.3873C50.396 52.4126 50.3652 52.4606 50.3332 52.4941C50.3012 52.5275 50.2838 52.5688 50.2944 52.5862C50.3051 52.6033 50.3016 52.6174 50.2866 52.6174C50.2716 52.6174 50.2413 52.6577 50.2193 52.7069C50.1973 52.756 50.1222 52.8763 50.0524 52.9744C49.9826 53.0725 49.9324 53.1637 49.9408 53.1776C49.9494 53.1912 49.9408 53.2024 49.9219 53.2024C49.903 53.2024 49.8874 53.2341 49.8874 53.2727C49.8874 53.3116 49.8775 53.3332 49.8652 53.3211C49.8531 53.3088 49.824 53.3392 49.8008 53.3888C49.7776 53.4383 49.7439 53.5042 49.7256 53.5356C49.6444 53.6748 49.6238 53.7129 49.5703 53.8199C49.5391 53.8825 49.498 53.9439 49.4787 53.9564C49.4594 53.9691 49.4161 54.0422 49.3822 54.119C49.3482 54.1959 49.3122 54.2659 49.3018 54.2749C49.2478 54.3217 49.14 54.5028 49.14 54.5465C49.14 54.574 49.1174 54.6093 49.0897 54.6249C49.062 54.6403 49.037 54.6845 49.0341 54.7232C49.0312 54.7618 49.0089 54.8008 48.9847 54.8101C48.9606 54.8193 48.95 54.8417 48.9612 54.8597C48.9723 54.8776 48.9682 54.8924 48.952 54.8924C48.922 54.8924 48.7435 55.1988 48.7511 55.2374C48.7535 55.2493 48.7426 55.2678 48.7266 55.2787C48.6921 55.3027 48.5392 55.549 48.539 55.5814C48.5388 55.594 48.5205 55.6225 48.498 55.6447C48.4758 55.6672 48.4575 55.7028 48.4575 55.7243C48.4575 55.7455 48.4368 55.7709 48.4116 55.7806C48.3863 55.7902 48.3469 55.8503 48.3239 55.914C48.3007 55.9778 48.2703 56.0299 48.256 56.0299C48.2416 56.0299 48.2299 56.0519 48.2299 56.0786C48.2299 56.1055 48.2129 56.1274 48.1921 56.1274C48.1712 56.1274 48.1632 56.1365 48.1743 56.1476C48.1854 56.1588 48.1593 56.2196 48.1162 56.283C48.0731 56.3463 48.0454 56.4105 48.0546 56.4253C48.0638 56.4403 48.0569 56.4524 48.0392 56.4524C48.0216 56.4524 47.9813 56.5109 47.9499 56.5825C47.9183 56.6539 47.8799 56.7124 47.8643 56.7124C47.8489 56.7124 47.8452 56.727 47.8563 56.7449C47.8672 56.7629 47.8629 56.7775 47.8463 56.7775C47.83 56.7775 47.7816 56.8465 47.7389 56.9309C47.6962 57.0154 47.6439 57.1033 47.6227 57.1261C47.6016 57.1492 47.5749 57.1969 47.5636 57.2326C47.5523 57.2683 47.5295 57.2974 47.5127 57.2974C47.4961 57.2974 47.4825 57.3172 47.4825 57.3416C47.4825 57.366 47.4458 57.4397 47.4012 57.5056C47.3565 57.5715 47.32 57.6489 47.32 57.678C47.32 57.707 47.3099 57.7207 47.2978 57.7086C47.2795 57.6903 47.1943 57.8443 47.1919 57.8999C47.1915 57.9089 47.1623 57.9473 47.1268 57.9855C47.0913 58.0235 47.0699 58.0672 47.0792 58.0824C47.0886 58.0974 47.0839 58.1099 47.0689 58.1099C47.0363 58.1099 46.9117 58.3104 46.9224 58.3455C46.9265 58.3589 46.9144 58.3699 46.8955 58.3699C46.8766 58.3699 46.8702 58.3845 46.8813 58.4024C46.8922 58.4204 46.885 58.435 46.8651 58.435C46.8454 58.435 46.8138 58.4789 46.7951 58.5325C46.7764 58.5861 46.7489 58.63 46.7341 58.63C46.719 58.63 46.698 58.6581 46.6871 58.6924C46.6761 58.7269 46.6317 58.8072 46.5882 58.8712C46.5449 58.9352 46.5168 58.9874 46.526 58.9874C46.5352 58.9874 46.5272 59.0057 46.5082 59.028C46.3946 59.1631 46.2481 59.3649 46.2477 59.387C46.2475 59.4012 46.2146 59.4482 46.1744 59.4911C46.134 59.5342 46.0691 59.6104 46.0297 59.6604C45.9905 59.7103 45.9137 59.808 45.8591 59.8776C45.8047 59.947 45.76 60.0164 45.76 60.0318C45.76 60.0472 45.7398 60.0599 45.715 60.0599C45.6902 60.0599 45.6481 60.0929 45.6214 60.133C45.5204 60.2855 44.99 60.7921 44.6715 61.0404C44.5343 61.1474 44.4701 61.2024 44.3779 61.2915C44.3336 61.3344 44.2975 61.3602 44.2975 61.3487C44.2975 61.3288 44.2094 61.3943 44.1135 61.4858C44.0877 61.5103 43.9941 61.5665 43.9058 61.6106C43.8173 61.6546 43.7449 61.7065 43.7449 61.7258C43.7449 61.7449 43.7352 61.751 43.7233 61.7391C43.7114 61.727 43.6784 61.7379 43.6501 61.763C43.5946 61.8128 43.392 61.928 43.071 62.0924C42.9594 62.1497 42.846 62.2147 42.819 62.2371C42.7921 62.2595 42.7699 62.2658 42.7699 62.2511C42.7699 62.2365 42.7524 62.242 42.7309 62.2634C42.7095 62.2849 42.6685 62.3024 42.64 62.3024C42.6114 62.3024 42.5696 62.3207 42.5474 62.343C42.525 62.3654 42.4965 62.3841 42.484 62.3845C42.4181 62.3869 42.0225 62.5462 42.0225 62.5703C42.0225 62.5859 42.0073 62.5893 41.9885 62.5778C41.9698 62.5663 41.933 62.5748 41.9064 62.5967C41.8801 62.6187 41.8495 62.6279 41.8386 62.617C41.8279 62.606 41.7879 62.614 41.7501 62.6347C41.7122 62.6554 41.6592 62.6755 41.6325 62.6794C41.5354 62.6938 41.4365 62.7217 41.3973 62.7458C41.3753 62.7595 41.3351 62.7737 41.308 62.7774C41.1255 62.803 41.0443 62.8205 41.0094 62.8422C40.9874 62.8556 40.9394 62.8705 40.9028 62.8749C40.6854 62.9013 40.5886 62.9161 40.4137 62.9498C40.3065 62.9705 40.1343 62.9933 40.0311 63.0005C39.928 63.0077 39.8129 63.0231 39.7757 63.035C39.6854 63.0637 38.4756 63.0655 38.2687 63.0372C38.1794 63.0249 38.0404 63.0087 37.96 63.0009C37.7598 62.9818 37.5962 62.9563 37.3138 62.9003C37.182 62.874 37.0665 62.8599 37.0578 62.8689C37.0488 62.8779 37.0131 62.8701 36.9786 62.8515C36.9441 62.833 36.8842 62.8118 36.8456 62.8043C36.8072 62.7969 36.6769 62.7603 36.5562 62.723C36.4355 62.6856 36.3216 62.6643 36.3033 62.6756C36.285 62.687 36.27 62.6807 36.27 62.6618C36.27 62.6429 36.2343 62.6275 36.1906 62.6275C36.1469 62.6275 36.1034 62.6146 36.0939 62.5992C36.0767 62.5715 35.888 62.5169 35.8394 62.5255C35.826 62.528 35.815 62.5154 35.815 62.4974C35.815 62.4795 35.7887 62.4649 35.7565 62.4649C35.7244 62.4649 35.6838 62.4506 35.6664 62.4333C35.6491 62.4159 35.6058 62.3972 35.5705 62.3915C35.5352 62.3861 35.3453 62.3022 35.1487 62.2053C34.9522 62.1084 34.7802 62.0321 34.7669 62.0357C34.7535 62.0394 34.7425 62.0294 34.7425 62.0136C34.7425 61.9978 34.695 61.961 34.6368 61.9319C34.5787 61.9029 34.4727 61.8428 34.4013 61.7985C34.3297 61.7541 34.2492 61.7081 34.2225 61.696C34.1956 61.6839 34.1205 61.6326 34.0554 61.5821C33.9902 61.5314 33.9274 61.4899 33.9157 61.4899C33.9042 61.4899 33.8771 61.4752 33.8555 61.4575C33.8338 61.4397 33.7065 61.3432 33.5725 61.2432C33.4384 61.1433 33.3066 61.0373 33.2796 61.0076C33.2525 60.978 33.1578 60.8951 33.0688 60.8237C32.9799 60.7522 32.8557 60.6408 32.7929 60.5763L32.6787 60.4589L32.4807 60.5763C32.3719 60.6408 32.2621 60.6983 32.237 60.7042C32.2118 60.71 32.1863 60.7284 32.1804 60.745C32.1744 60.7613 32.1498 60.775 32.1258 60.775C32.1018 60.775 32.0597 60.7974 32.0322 60.8249C32.0047 60.8522 31.978 60.8735 31.9729 60.8719C31.94 60.8616 31.72 60.9772 31.72 61.0047C31.72 61.0234 31.7066 61.0304 31.6902 61.0203C31.6738 61.0103 31.6557 61.0131 31.6496 61.0265C31.6436 61.0402 31.5424 61.0987 31.4246 61.1566C31.3066 61.2147 31.1766 61.2913 31.1352 61.3272C31.0939 61.3631 31.0403 61.3924 31.0163 61.3924C30.9921 61.3924 30.9724 61.4037 30.9724 61.4175C30.9724 61.4314 30.9213 61.4702 30.8587 61.5039C30.7961 61.5376 30.745 61.5784 30.745 61.5944C30.745 61.6106 30.7333 61.6166 30.7189 61.6076C30.7047 61.5989 30.6278 61.6435 30.5483 61.7071C30.4687 61.7705 30.3568 61.8449 30.2995 61.8728C30.2421 61.9005 30.2027 61.9354 30.2121 61.9502C30.2213 61.9653 30.2068 61.9774 30.1797 61.9774C30.1528 61.9774 30.0935 62.0121 30.0479 62.0544L29.9648 62.1312L30.0867 62.2718C30.2938 62.5105 30.7499 62.9625 30.9884 63.1655C31.1134 63.2718 31.2318 63.3734 31.2516 63.3911C31.408 63.5317 31.6036 63.6809 31.6141 63.6674C31.6212 63.6584 31.6414 63.6768 31.6588 63.708C31.6764 63.7394 31.7038 63.7649 31.72 63.7649C31.7362 63.7649 31.7854 63.7979 31.8292 63.838C31.9784 63.9751 32.3686 64.2444 32.4396 64.2594C32.464 64.2645 32.5028 64.2943 32.5262 64.3255C32.5496 64.3567 32.5897 64.3825 32.6155 64.3825C32.6414 64.3825 32.6625 64.3967 32.6625 64.4143C32.6625 64.4318 32.6991 64.4554 32.7438 64.4665C32.7884 64.4778 32.8249 64.4968 32.8249 64.5088C32.8249 64.5295 32.9712 64.5946 33.0326 64.6013C33.0484 64.603 33.0704 64.6186 33.0813 64.6358C33.0922 64.6531 33.189 64.7146 33.2962 64.7723C33.4035 64.8298 33.5058 64.8862 33.5238 64.8973C33.5415 64.9086 33.5636 64.9185 33.5725 64.9195C33.5815 64.9205 33.6985 64.9747 33.8325 65.0398C34.1016 65.1709 34.2543 65.2358 34.3038 65.2407C34.3215 65.2424 34.3691 65.2627 34.4093 65.2855C34.4496 65.3085 34.4826 65.3158 34.483 65.3017C34.4832 65.2877 34.4943 65.2925 34.5074 65.3124C34.5204 65.3325 34.6645 65.3939 34.8274 65.4493C34.9904 65.5045 35.1585 65.5642 35.2012 65.5815C35.2439 65.5991 35.3884 65.6443 35.5225 65.6822C35.6565 65.7198 35.8439 65.7736 35.9387 65.8015C36.0334 65.8294 36.1198 65.8432 36.1307 65.8325C36.1415 65.8218 36.1674 65.8272 36.1885 65.8448C36.2095 65.8621 36.3425 65.9006 36.4839 65.9302C36.7329 65.9821 36.8425 65.9988 37.0825 66.0218C37.1449 66.0279 37.2547 66.0484 37.3263 66.0673C37.3977 66.0864 37.5952 66.1092 37.765 66.1182C37.9347 66.1271 38.1761 66.1455 38.3013 66.1591C38.5934 66.1909 39.3956 66.1896 39.7312 66.1566C40.0514 66.1254 40.3193 66.1063 40.4402 66.1063C40.4905 66.1063 40.588 66.0911 40.6567 66.0726C40.7255 66.054 40.8599 66.0314 40.9552 66.022C41.1578 66.0022 41.2033 65.9945 41.2912 65.9661C41.362 65.9431 41.5045 65.9134 41.6325 65.8951C41.7879 65.8729 42.1323 65.7777 42.1697 65.7467C42.1904 65.7295 42.2161 65.7245 42.2272 65.7354C42.2381 65.7465 42.2734 65.7442 42.3054 65.7301C42.3376 65.7163 42.4004 65.6989 42.445 65.6917C42.4897 65.6843 42.531 65.6646 42.5371 65.6476C42.5431 65.6309 42.562 65.6256 42.5792 65.6363C42.5964 65.6469 42.6301 65.6391 42.6543 65.6192C42.6785 65.5991 42.7106 65.5854 42.7258 65.5889C42.7572 65.596 42.8545 65.5634 42.9419 65.5164C42.9739 65.4992 43.0125 65.4928 43.0277 65.5022C43.0427 65.5115 43.0731 65.4975 43.095 65.4712C43.1168 65.4448 43.1463 65.4302 43.1601 65.4388C43.1946 65.4601 43.485 65.3503 43.485 65.316C43.485 65.3009 43.5006 65.2982 43.5195 65.3099C43.5386 65.3216 43.5838 65.3042 43.6205 65.2713C43.657 65.2381 43.693 65.2161 43.7006 65.2222C43.7283 65.2442 44.046 65.1131 44.0612 65.0736C44.0698 65.0511 44.0885 65.04 44.1027 65.0488C44.1326 65.0671 44.4639 64.9051 44.5001 64.8544C44.5132 64.8361 44.5241 64.8325 44.5245 64.8464C44.5253 64.8912 45.2115 64.5012 45.2345 64.4425C45.2406 64.4273 45.2661 64.4149 45.2915 64.4149C45.3168 64.4149 45.3375 64.3995 45.3375 64.3805C45.3375 64.3616 45.3521 64.3552 45.37 64.3661C45.3878 64.3772 45.4024 64.3737 45.4024 64.3583C45.4024 64.3431 45.4527 64.3123 45.5143 64.2901C45.5758 64.2678 45.6703 64.2084 45.7243 64.1578C45.7784 64.1073 45.8304 64.0738 45.84 64.0834C45.8497 64.0929 45.8575 64.0853 45.8575 64.0664C45.8575 64.0475 45.8946 64.0227 45.94 64.0112C45.9855 63.9999 46.0141 63.9767 46.0038 63.9599C45.9933 63.9431 46.0219 63.9199 46.0674 63.9086C46.1128 63.8971 46.15 63.8759 46.15 63.8611C46.15 63.8464 46.1771 63.8258 46.2103 63.8152C46.2434 63.8047 46.3129 63.7528 46.3645 63.7002C46.4164 63.6473 46.4718 63.6038 46.4878 63.6033C46.5036 63.6029 46.5621 63.5549 46.6176 63.4968C46.6732 63.4387 46.7274 63.3911 46.7382 63.3911C46.7996 63.3911 47.4825 62.7419 47.4825 62.6836C47.4825 62.6645 47.4899 62.6565 47.4988 62.6655C47.516 62.6827 47.775 62.4563 47.775 62.4245C47.775 62.4145 47.845 62.335 47.9306 62.2476C48.0162 62.1603 48.1295 62.0314 48.1825 61.9612C48.2354 61.8912 48.3262 61.7843 48.3843 61.724C48.4425 61.6638 48.49 61.5952 48.49 61.5719C48.49 61.5485 48.514 61.5201 48.5435 61.509C48.5727 61.4977 48.5875 61.4791 48.576 61.4676C48.5647 61.4563 48.584 61.4269 48.6191 61.4023C48.6817 61.3584 48.9124 61.0337 48.9124 60.9895C48.9124 60.977 48.9493 60.9302 48.9943 60.8852C49.0394 60.8401 49.0694 60.7921 49.061 60.7787C49.0528 60.7652 49.0744 60.7336 49.1092 60.7087C49.1441 60.6835 49.1725 60.6502 49.1725 60.6346C49.1725 60.619 49.2053 60.5603 49.2457 60.5041C49.2858 60.448 49.3348 60.3727 49.3545 60.3366C49.3742 60.3005 49.4619 60.1535 49.5495 60.01C49.637 59.8663 49.7527 59.6621 49.8063 59.5564C49.8599 59.4507 49.9149 59.3489 49.9286 59.3302C50.0588 59.1516 50.2166 58.8749 50.2101 58.8363C50.2082 58.8244 50.2298 58.8016 50.2583 58.7856C50.2868 58.7696 50.31 58.7355 50.31 58.7095C50.31 58.6836 50.3392 58.6331 50.3749 58.5974C50.4108 58.5617 50.44 58.5104 50.44 58.4837C50.44 58.4568 50.4554 58.435 50.4744 58.435C50.4933 58.435 50.4997 58.4204 50.4888 58.4024C50.4777 58.3845 50.4851 58.3699 50.505 58.3699C50.5249 58.3699 50.5334 58.3572 50.5239 58.3418C50.5143 58.3264 50.536 58.287 50.5719 58.2544C50.6079 58.2218 50.63 58.176 50.6208 58.1526C50.6118 58.129 50.6153 58.1099 50.6286 58.1099C50.6417 58.1099 50.6885 58.0442 50.7325 57.9637C50.7764 57.8831 50.8226 57.8174 50.8353 57.8174C50.8556 57.8174 50.9117 57.6833 50.8996 57.663C50.8971 57.6585 50.9248 57.6251 50.9611 57.5887C50.9975 57.5524 51.0186 57.5085 51.0081 57.4912C50.9973 57.474 51.0016 57.46 51.0174 57.46C51.0332 57.46 51.1106 57.343 51.1894 57.1999C51.2682 57.0569 51.3448 56.9399 51.3595 56.9399C51.3743 56.9399 51.3772 56.9253 51.3663 56.9074C51.3552 56.8896 51.3616 56.875 51.3805 56.875C51.3994 56.875 51.415 56.8588 51.415 56.8393C51.415 56.8198 51.4433 56.7638 51.478 56.7151C51.5127 56.6665 51.5457 56.6063 51.5511 56.5813C51.5566 56.5566 51.5868 56.5072 51.618 56.4719C51.6494 56.4366 51.675 56.3902 51.675 56.369C51.675 56.3477 51.6968 56.3122 51.7233 56.2902C51.75 56.2681 51.7637 56.2371 51.7539 56.2211C51.7442 56.2054 51.7526 56.1925 51.7725 56.1925C51.7924 56.1925 51.8006 56.179 51.7904 56.1626C51.7803 56.1463 51.7853 56.1281 51.8013 56.1221C51.8374 56.1086 52.0188 55.8193 52.0679 55.6968C52.0876 55.6477 52.117 55.6075 52.1332 55.6075C52.1492 55.6075 52.1625 55.5874 52.1625 55.563C52.1625 55.5386 52.1927 55.4803 52.2295 55.4333C52.2664 55.3864 52.2877 55.3333 52.2764 55.3152C52.2652 55.2972 52.268 55.2822 52.2824 55.2818C52.2968 55.2814 52.3526 55.2071 52.4062 55.1167C52.4598 55.026 52.5183 54.9343 52.5363 54.9129C52.554 54.8914 52.6116 54.7939 52.664 54.6962C52.7165 54.5986 52.8608 54.3505 52.9848 54.145C53.1086 53.9393 53.2106 53.7528 53.2116 53.7306C53.2125 53.7082 53.2235 53.6899 53.2359 53.6899C53.2482 53.6899 53.2935 53.6204 53.3362 53.5356C53.3787 53.4506 53.4284 53.3704 53.4462 53.3574C53.4641 53.3441 53.4664 53.3332 53.4514 53.333C53.4364 53.3326 53.4635 53.2856 53.5115 53.2287C53.5596 53.1715 53.6123 53.0947 53.6287 53.0581C53.6451 53.0212 53.6872 52.9473 53.7225 52.8937C53.7578 52.84 53.8016 52.7615 53.8202 52.7191C53.8387 52.6768 53.8828 52.6055 53.9181 52.5604C53.9535 52.5156 53.9824 52.4504 53.9824 52.4161C53.9824 52.3818 53.997 52.3627 54.015 52.3736C54.0329 52.3847 54.0475 52.373 54.0475 52.3477C54.0475 52.3223 54.0836 52.2482 54.1277 52.1833C54.1719 52.1182 54.1975 52.0647 54.1846 52.0643C54.1717 52.0641 54.1778 52.0532 54.1981 52.04C54.2375 52.0146 54.349 51.8329 54.6319 51.3337C54.6674 51.2711 54.6883 51.22 54.6784 51.22C54.6684 51.22 54.683 51.1972 54.7109 51.1693C54.7788 51.1014 54.9991 50.7262 55.0001 50.6769C55.0005 50.6555 55.0212 50.6299 55.0461 50.6204C55.0711 50.6108 55.0824 50.5882 55.0713 50.5702C55.0602 50.5521 55.0676 50.5375 55.0875 50.5375C55.1074 50.5375 55.1159 50.5248 55.1064 50.5092C55.0968 50.4938 55.1179 50.455 55.1532 50.423C55.1885 50.391 55.2175 50.3452 55.2175 50.3212C55.2175 50.2971 55.2322 50.2774 55.2499 50.2774C55.2678 50.2774 55.2829 50.2592 55.2832 50.2368C55.2836 50.2144 55.3125 50.1596 55.3474 50.1149C55.3825 50.0703 55.4114 50.0057 55.4118 49.9714C55.4121 49.9371 55.4221 49.9186 55.4336 49.9303C55.4453 49.942 55.472 49.9187 55.4929 49.8788C55.5137 49.8388 55.5504 49.7696 55.5742 49.7249C55.5982 49.6803 55.629 49.6218 55.6428 49.5949C55.6569 49.5681 55.7353 49.4392 55.8172 49.3086C55.8993 49.1779 55.9697 49.0543 55.9737 49.0336C55.9778 49.013 56.0063 48.9677 56.0369 48.9332C56.0675 48.8985 56.0851 48.8578 56.0757 48.8425C56.0664 48.8273 56.0736 48.8149 56.0917 48.8149C56.1099 48.8149 56.1728 48.7162 56.2317 48.5955C56.2906 48.475 56.3478 48.3689 56.3589 48.3599C56.401 48.326 56.6576 47.8868 56.658 47.848C56.6582 47.8256 56.6695 47.8075 56.6832 47.8075C56.6968 47.8075 56.7169 47.78 56.7274 47.7463C56.7381 47.7127 56.7754 47.6523 56.8103 47.6121C56.8452 47.5719 56.8666 47.5279 56.8583 47.5142C56.8497 47.5004 56.8647 47.4809 56.8914 47.4705C56.9181 47.4604 56.9404 47.4333 56.9407 47.4103C56.9411 47.3875 56.97 47.3321 57.0049 47.2874C57.04 47.2428 57.0689 47.1798 57.0693 47.1474C57.0696 47.115 57.0847 47.0977 57.1024 47.1086C57.1203 47.1197 57.135 47.108 57.135 47.0825C57.135 47.0569 57.1652 46.9978 57.202 46.9508C57.2389 46.9039 57.2602 46.8508 57.2489 46.8327C57.2377 46.8147 57.2426 46.7999 57.2598 46.7999C57.2962 46.7999 57.4364 46.5755 57.4376 46.5156C57.438 46.4932 57.4507 46.4749 57.4659 46.4749C57.4809 46.4749 57.5259 46.4054 57.5659 46.3206C57.6061 46.2356 57.656 46.1478 57.6771 46.1254C57.6981 46.103 57.7482 46.0189 57.7884 45.9386C57.8286 45.8583 57.8744 45.7924 57.8902 45.7924C57.906 45.7924 57.9105 45.7789 57.9002 45.7621C57.8898 45.7456 57.8964 45.7225 57.915 45.7112C57.9335 45.6997 57.9401 45.6767 57.9298 45.6601C57.9195 45.6436 57.9267 45.6299 57.9456 45.6299C57.9645 45.6299 57.9799 45.6055 57.9799 45.5757C57.9799 45.5459 57.9893 45.5309 58.0008 45.5424C58.0261 45.5677 58.141 45.3635 58.1205 45.3292C58.1127 45.316 58.1217 45.3049 58.1406 45.3049C58.1595 45.3049 58.1749 45.283 58.1749 45.2561C58.1749 45.2294 58.1921 45.2074 58.2129 45.2074C58.2338 45.2074 58.242 45.1986 58.2311 45.1877C58.2203 45.1769 58.2375 45.1401 58.2693 45.106C58.3233 45.0478 58.3707 44.965 58.4155 44.8499C58.4261 44.823 58.492 44.721 58.5622 44.6233C58.6324 44.5254 58.6827 44.434 58.6743 44.4201C58.6657 44.4063 58.6741 44.395 58.693 44.395C58.7119 44.395 58.7275 44.3765 58.7275 44.3536C58.7275 44.331 58.7636 44.2595 58.8077 44.1945C58.8518 44.1298 58.8919 44.058 58.897 44.0354C58.9021 44.0126 58.9319 43.9673 58.9631 43.9346C58.9943 43.9018 59.02 43.8529 59.02 43.8262C59.02 43.7993 59.0354 43.7774 59.0544 43.7774C59.0733 43.7774 59.0797 43.7628 59.0688 43.7449C59.0577 43.7271 59.0651 43.7125 59.085 43.7125C59.1049 43.7125 59.1123 43.6979 59.1012 43.6799C59.0902 43.662 59.0932 43.6474 59.1078 43.6474C59.1425 43.6474 59.2987 43.3913 59.2882 43.3523C59.2837 43.3357 59.2938 43.3225 59.3108 43.3225C59.3277 43.3225 59.38 43.2457 59.427 43.1519C59.4742 43.0579 59.5348 42.9565 59.5619 42.9264C59.589 42.8962 59.6004 42.8537 59.5869 42.8319C59.5713 42.8067 59.576 42.8009 59.6 42.8155C59.6238 42.8303 59.6374 42.8137 59.6374 42.7699C59.6374 42.732 59.6489 42.7082 59.6631 42.7168C59.6852 42.7307 59.7645 42.5918 59.7761 42.5191C59.7782 42.505 59.8061 42.4659 59.8377 42.4319C59.8693 42.3978 59.8876 42.3576 59.8782 42.3424C59.8689 42.3274 59.8763 42.3149 59.8948 42.3149C59.9303 42.3149 60.0455 42.1205 60.0342 42.0794C60.0305 42.0659 60.043 42.055 60.0619 42.055C60.0808 42.055 60.0881 42.0415 60.0779 42.0252C60.0678 42.0088 60.0707 41.9906 60.0841 41.9846C60.1179 41.9696 60.2597 41.752 60.3846 41.5228C60.442 41.4177 60.5313 41.26 60.5832 41.172C60.635 41.0841 60.6775 40.9981 60.6775 40.9809C60.6775 40.964 60.6929 40.9499 60.7119 40.9499C60.7308 40.9499 60.7372 40.9353 60.7263 40.9174C60.7152 40.8996 60.7226 40.885 60.7425 40.885C60.7624 40.885 60.7698 40.8704 60.7587 40.8524C60.7477 40.8345 60.7507 40.8199 60.7653 40.8199C60.7982 40.8199 60.9449 40.5874 60.9373 40.5472C60.9343 40.5314 60.9441 40.5094 60.9591 40.4985C60.9739 40.4876 61.0022 40.4494 61.0217 40.4137C61.0412 40.378 61.1038 40.2645 61.1607 40.1617C61.2179 40.059 61.253 39.9747 61.2391 39.9743C61.2251 39.9741 61.2284 39.9632 61.2462 39.95C61.2641 39.9369 61.2971 39.8932 61.3193 39.853C61.3417 39.8129 61.3741 39.7544 61.3914 39.723C61.48 39.5627 61.6348 39.206 61.6313 39.1705C61.6289 39.1481 61.6402 39.13 61.656 39.13C61.672 39.13 61.6849 39.1171 61.6849 39.1013C61.6849 39.0857 61.7097 39.0163 61.7399 38.9471C61.7701 38.8778 61.7959 38.8139 61.7972 38.8049C61.7986 38.7959 61.8113 38.7704 61.8255 38.748C61.8397 38.7257 61.8431 38.694 61.8329 38.6778C61.8228 38.6614 61.8288 38.6431 61.8464 38.637C61.8637 38.631 61.8836 38.5969 61.8902 38.5612C61.8971 38.5255 61.9199 38.4524 61.9409 38.3987C61.962 38.3451 61.992 38.2646 62.0078 38.2199C62.0234 38.1753 62.0474 38.1094 62.0611 38.0737C62.0895 37.9984 62.0835 38.0169 62.1396 37.8299C62.2446 37.4795 62.275 37.3631 62.2808 37.2882C62.2838 37.2496 62.2972 37.2069 62.3107 37.1934C62.3239 37.18 62.335 37.134 62.335 37.0911C62.335 37.0482 62.3487 36.9873 62.3657 36.9559C62.3824 36.9243 62.4033 36.8266 62.4117 36.7387C62.4202 36.6508 62.4429 36.5107 62.4618 36.4275C62.4807 36.3444 62.5045 36.1921 62.5144 36.0892C62.5246 35.9862 62.5378 35.8932 62.5441 35.8828C62.6252 35.7475 62.6379 33.2088 62.5585 32.9951C62.5435 32.9547 62.5236 32.8305 62.5144 32.719C62.5051 32.6074 62.4895 32.4797 62.4795 32.4349C62.4698 32.3902 62.4474 32.2586 62.4296 32.1424C62.4119 32.0261 62.3818 31.8947 62.3629 31.8499C62.344 31.8052 62.322 31.7249 62.314 31.6712C62.2886 31.5029 62.2761 31.4485 62.2212 31.2649C62.1917 31.1666 62.1523 31.0203 62.1338 30.94C62.1155 30.8594 62.08 30.7705 62.055 30.7423C62.0302 30.714 62.0174 30.6834 62.0265 30.6742C62.0357 30.6648 62.0185 30.6003 61.9881 30.5305C61.9579 30.4607 61.9363 30.3854 61.9404 30.363C61.9445 30.3407 61.9326 30.3224 61.9138 30.3224C61.8953 30.3224 61.8828 30.3115 61.8861 30.298C61.8973 30.2542 61.8429 30.0625 61.8193 30.0625C61.8066 30.0625 61.7939 30.0309 61.791 29.9923C61.7881 29.9537 61.774 29.9133 61.7598 29.9028C61.7454 29.8922 61.7298 29.8593 61.7249 29.8295C61.7198 29.7998 61.6695 29.6754 61.6129 29.5533C61.5562 29.4311 61.5078 29.3238 61.5051 29.3149C61.4796 29.2281 61.2885 28.8599 61.269 28.8599C61.2551 28.8599 61.2413 28.8274 61.2384 28.7874C61.2354 28.7476 61.2105 28.6987 61.1832 28.6786C61.1559 28.6587 61.143 28.6327 61.1547 28.621C61.1662 28.6095 61.1588 28.6 61.1379 28.6C61.1171 28.6 61.0999 28.577 61.0999 28.5489C61.0999 28.491 60.9831 28.2808 60.8008 28.0109C60.7329 27.9105 60.6775 27.8118 60.6775 27.7915C60.6775 27.7714 60.6653 27.7549 60.6502 27.7549C60.6352 27.7549 60.606 27.7178 60.5853 27.6724C60.5646 27.6271 60.5326 27.5723 60.5143 27.5505C60.4958 27.5288 60.3973 27.4015 60.2953 27.2674C60.1935 27.1334 60.0988 27.0187 60.0849 27.0129C60.0713 27.0068 60.06 26.9821 60.06 26.9579C60.06 26.9335 60.0333 26.8945 60.0005 26.8711C59.9677 26.8477 59.9135 26.7847 59.88 26.7311C59.8462 26.6775 59.7597 26.5728 59.6875 26.4985C59.6154 26.4242 59.5196 26.3111 59.475 26.2473C59.4303 26.1835 59.3679 26.1227 59.3363 26.112C59.3047 26.1014 59.2868 26.0802 59.2962 26.065C59.3057 26.0496 59.2839 26.0277 59.248 26.0162C59.2119 26.0049 59.1825 25.9804 59.1825 25.9616C59.1825 25.9431 59.0984 25.8481 58.9957 25.7506C58.8929 25.6531 58.794 25.5592 58.7763 25.5416C58.6747 25.442 58.5715 25.3464 58.5 25.2858C58.4553 25.2479 58.3487 25.1555 58.263 25.0802C58.1774 25.0052 58.0934 24.9437 58.0762 24.9437C58.0591 24.9437 58.0485 24.933 58.053 24.9199C58.063 24.8911 57.9085 24.7786 57.8744 24.7895C57.861 24.7938 57.85 24.7831 57.85 24.7653C57.85 24.7359 57.6504 24.5939 57.5737 24.5687C57.5558 24.5629 57.5154 24.5253 57.4838 24.4851C57.4524 24.4451 57.3543 24.3796 57.2658 24.3396C57.1775 24.2996 57.112 24.2558 57.1203 24.2423C57.1287 24.2287 57.0771 24.1916 57.0053 24.1598C56.9337 24.1282 56.875 24.0916 56.875 24.0783C56.875 24.0651 56.8421 24.044 56.8019 24.0315C56.7615 24.019 56.6849 23.9779 56.6313 23.9401C56.4788 23.832 56.3316 23.7593 56.3097 23.7809C56.2988 23.7919 56.29 23.786 56.29 23.7681C56.29 23.7365 55.674 23.4134 55.5757 23.3935C55.5494 23.388 55.5081 23.3654 55.4841 23.343C55.4445 23.3063 55.3724 23.2882 55.3068 23.2985C55.2934 23.3007 55.2825 23.289 55.2825 23.2724C55.2825 23.256 55.2277 23.2248 55.1606 23.2032C55.0935 23.1815 55.0241 23.1552 55.0062 23.1447C54.9884 23.1341 54.9592 23.1228 54.9412 23.1197C54.9233 23.1166 54.8648 23.0949 54.8112 23.0717C54.7575 23.0487 54.699 23.0284 54.6813 23.0271C54.6633 23.0257 54.6341 23.0158 54.6162 23.0052C54.5752 22.9809 54.3346 22.8982 54.2913 22.8935C54.2733 22.8916 54.2148 22.8721 54.1612 22.85C54.1076 22.828 54.0224 22.8048 53.9721 22.7983C53.9216 22.7919 53.8631 22.773 53.842 22.7564C53.8209 22.7398 53.7817 22.7244 53.755 22.7221C53.678 22.7157 53.5805 22.6956 53.5275 22.6753C53.4274 22.6373 52.8703 22.5242 52.6915 22.5058C52.634 22.4998 52.5729 22.4863 52.556 22.4758C52.5388 22.4653 52.4398 22.4481 52.3356 22.4378C52.2315 22.4275 52.1024 22.4144 52.0488 22.4089C51.9952 22.4035 51.8415 22.3838 51.7075 22.3652C51.5734 22.3465 51.3979 22.3286 51.3175 22.3253C50.9966 22.3118 27.1151 22.2956 27.1018 22.3089Z" fill="#F8FC1C"/>
</mask>
<g mask="url(#mask0_67_37)">
<g style="mix-blend-mode:multiply">
<rect x="7" y="7" width="64" height="63" fill="#D9D9D9"/>
</g>
</g>
</svg>
